<svg width="35" height="35" viewBox="0 0 35 35" fill="none" xmlns="http://www.w3.org/2000/svg">
<g clip-path="url(#clip0_300_6381)">
<rect width="35" height="35" rx="7.5" fill="#32CAFA"/>
<rect x="1.24969" y="1.25023" width="32.5" height="32.5" rx="7.5" fill="#021D25"/>
<path d="M7.50031 9.01158C7.50031 8.90769 7.72455 8.82792 7.85427 8.82792C8.87354 8.77597 10.3691 8.75 11.9388 8.75C16.3291 8.75 18.0396 11.158 18.0396 14.2432C18.0396 18.2727 15.1208 19.9999 11.5403 19.9999C10.9399 19.9999 10.7305 19.9739 10.3116 19.9739V26.0663C10.3116 26.1981 10.2598 26.25 10.1282 26.25H7.68378C7.5522 26.25 7.50031 26.1981 7.50031 26.0663V9.01158ZM10.3116 17.436C10.6767 17.462 10.9658 17.462 11.5922 17.462C13.4473 17.462 15.1912 16.8071 15.1912 14.297C15.1912 12.2823 13.9458 11.2619 11.8276 11.2619C11.2012 11.2619 10.5989 11.2879 10.3116 11.3139V17.436ZM23.9458 15.5511C22.6912 15.5511 22.2724 16.18 22.2724 16.7032C22.2724 17.2783 22.5596 17.6716 24.2331 18.5343C26.7164 19.7383 27.5003 20.8885 27.5003 22.5897C27.5003 25.1276 25.5655 26.25 22.9525 26.25C21.5681 26.25 20.3876 25.9698 19.7094 25.5765C19.6056 25.5245 19.5778 25.4466 19.5778 25.3149V23.2168C19.5778 23.0591 19.6556 23.0071 19.7612 23.085C20.7546 23.7399 21.9073 24.0275 22.9525 24.0275C24.2071 24.0275 24.7297 23.5043 24.7297 22.7975C24.7297 22.2224 24.3646 21.7252 22.769 20.8885C20.5211 19.8162 19.5796 18.7161 19.5796 16.885C19.5796 14.8443 21.1734 13.3059 23.944 13.3059C25.3024 13.3059 26.2624 13.3527 26.785 13.5883C26.9165 13.6663 26.9425 13.798 26.9425 13.9019V16.0743C26.9425 16.2041 26.8647 16.2839 26.7071 16.232C26.2031 15.9327 25.2005 15.5511 23.9458 15.5511Z" fill="#32CAFA"/>
</g>
<defs>
<clipPath id="clip0_300_6381">
<rect width="35" height="35" fill="white"/>
</clipPath>
</defs>
</svg>
