<svg width="35" height="35" viewBox="0 0 35 35" fill="none" xmlns="http://www.w3.org/2000/svg">
<rect width="35" height="35" rx="7.5" fill="#FB7C33"/>
<rect x="1.24969" y="1.24969" width="32.5" height="32.5" rx="7.5" fill="#261302"/>
<path d="M12.4626 21.4508L11.2923 26.0924C11.2681 26.2192 11.2197 26.25 11.0728 26.25H8.90338C8.75818 26.25 8.73398 26.1993 8.75818 26.02L12.9518 10.6262C13.0244 10.3455 13.0745 10.1028 13.0987 9.33678C13.0987 9.23536 13.1471 9.18284 13.2215 9.18284H16.3174C16.4142 9.18284 16.4643 9.20819 16.4885 9.33678L21.1938 26.0454C21.218 26.1721 21.1938 26.25 21.0711 26.25H18.6337C18.5127 26.25 18.4384 26.2192 18.4142 26.1178L17.1955 21.4508H12.4626ZM16.5819 18.9352L14.8273 11.6603L13.097 18.9352H16.5819ZM23.2284 10.3328C23.2284 9.33677 23.887 8.75 24.7392 8.75C25.6415 8.75 26.25 9.38929 26.25 10.3328C26.25 11.3543 25.6156 11.9157 24.715 11.9157C23.8369 11.9157 23.2284 11.3543 23.2284 10.3328ZM23.3943 13.8517C23.3943 13.7231 23.4427 13.6724 23.5655 13.6724H25.8835C26.0063 13.6724 26.0547 13.7231 26.0547 13.8517V26.0707C26.0547 26.1993 26.0305 26.25 25.8835 26.25H23.5897C23.4427 26.25 23.3943 26.1739 23.3943 26.0454V13.8517Z" fill="#FB7C33"/>
</svg>
