<svg width="35" height="35" viewBox="0 0 35 35" fill="none" xmlns="http://www.w3.org/2000/svg">
<rect width="35" height="35" rx="7.35" fill="#2E001F"/>
<path d="M24.6653 28.2111H10.3347C8.39028 28.2111 6.80556 26.6534 6.80556 24.7422V11.23C6.80556 9.31879 8.39028 7.76116 10.3347 7.76116H24.6556C26.6097 7.76116 28.1847 9.31879 28.1847 11.23V24.7327C28.1944 26.6534 26.6097 28.2111 24.6653 28.2111Z" fill="#2E001F"/>
<path fill-rule="evenodd" clip-rule="evenodd" d="M15.0597 17.2694L17.7819 22.4106C17.8306 22.487 17.8014 22.5634 17.7236 22.5634H16.0319C15.925 22.5634 15.8764 22.5348 15.8278 22.4392C15.6669 22.1131 15.5054 21.787 15.3431 21.4593C14.8775 20.5192 14.4052 19.5656 13.9222 18.5595H13.9028C13.3194 19.84 12.6778 21.1874 12.0556 22.4488C12.0069 22.5252 11.9583 22.5539 11.8806 22.5539H10.2764C10.1792 22.5539 10.1694 22.4774 10.2181 22.4201L12.8819 17.4319L10.3056 12.3863C10.2472 12.3098 10.3056 12.2525 10.3639 12.2525H12.0361C12.1333 12.2525 12.1722 12.2716 12.2111 12.3576C12.8236 13.619 13.4458 14.9186 14.0292 16.1896H14.0486C14.6125 14.9282 15.2347 13.619 15.8375 12.3672L15.8393 12.3644C15.8868 12.2896 15.9165 12.2429 16.0125 12.2429H17.5778C17.6556 12.2429 17.6847 12.3003 17.6361 12.3767L15.0597 17.2694ZM18.2583 18.827C18.2583 16.6005 19.7653 14.8613 22.1569 14.8613C22.3611 14.8613 22.4681 14.8613 22.6625 14.8804V12.3481C22.6625 12.2907 22.7111 12.2525 22.7597 12.2525H24.2958C24.3736 12.2525 24.3931 12.2812 24.3931 12.3289V21.1014C24.3931 21.3594 24.3931 21.6843 24.4417 22.0379C24.4417 22.0952 24.4222 22.1143 24.3639 22.143C23.5472 22.5252 22.6917 22.6972 21.875 22.6972C19.7653 22.7068 18.2583 21.4263 18.2583 18.827ZM22.0986 16.2851C22.3319 16.2851 22.5264 16.3234 22.6625 16.3807V21.1109C22.4778 21.1874 22.225 21.216 21.9917 21.216C20.8931 21.216 20.0181 20.5089 20.0181 18.7506C20.0181 17.2121 20.8736 16.2851 22.0986 16.2851Z" fill="#FFD9F2"/>
</svg>
