<svg width="49" height="49" viewBox="0 0 49 49" fill="none" xmlns="http://www.w3.org/2000/svg">
<g id="Logo=airbnb">
<g id="Airbnb">
<path id="Path" d="M24.0723 3.03613C12.4895 3.03613 3.07227 12.4533 3.07227 24.0361C3.07227 35.6189 12.4895 45.0361 24.0723 45.0361C35.6551 45.0361 45.0723 35.6189 45.0723 24.0361C45.0723 12.4533 35.6551 3.03613 24.0723 3.03613Z" fill="#FF5A5F"/>
<path id="vector" d="M24.0723 29.5662C22.6955 27.8344 21.8856 26.3163 21.6156 25.0174C21.3457 23.9621 21.4537 23.1232 21.9126 22.5009C22.3985 21.7703 23.1274 21.4185 24.0723 21.4185C25.0171 21.4185 25.746 21.7703 26.2319 22.5009C26.6909 23.1232 26.7988 23.9621 26.5289 25.0174C26.2319 26.3434 25.4221 27.8587 24.0723 29.5662ZM31.6095 33.5711C29.3149 34.5723 27.0445 32.9757 25.1008 30.811C28.316 26.7763 28.9099 23.6374 27.5304 21.6052C26.7206 20.4416 25.5597 19.8734 24.0723 19.8734C21.0757 19.8734 19.4263 22.417 20.0742 25.3692C20.4521 26.9657 21.451 28.7815 23.0437 30.811C21.8491 32.1379 20.2817 33.6432 18.4004 33.8146C15.6739 34.2205 13.5385 31.5686 14.5103 28.8329L21.424 14.4857C22.014 13.4072 22.7423 12.4833 24.0696 12.4833C25.0414 12.4833 25.7973 13.0516 26.1212 13.5116L33.6288 28.8329C34.3643 30.6841 33.4315 32.7824 31.6095 33.5711ZM35.092 28.2917L28.6643 14.8916C27.4494 12.4021 26.5856 10.9111 24.0723 10.9111C21.5887 10.9111 20.5331 12.643 19.4533 14.8916L13.0526 28.2917C11.6758 32.0828 14.5103 35.4111 17.9415 35.4111C18.1575 35.4111 18.3719 35.3841 18.5894 35.3841C20.3711 35.1676 22.2096 34.0311 24.0723 31.9989C25.935 34.0284 27.7734 35.1676 29.5551 35.3841C29.7726 35.3841 29.987 35.4111 30.203 35.4111C33.6342 35.4138 36.4687 32.0828 35.092 28.2917Z" fill="white"/>
</g>
</g>
</svg>
