<svg width="52" height="52" viewBox="0 0 52 52" fill="none" xmlns="http://www.w3.org/2000/svg">
<rect x="2" y="2.03613" width="48" height="48" rx="7.5" fill="#191619" stroke="#FAFAFB" stroke-width="3"/>
<path fill-rule="evenodd" clip-rule="evenodd" d="M33.6726 33.1657C34.5156 33.0631 36.385 32.8356 36.7188 33.2697C37.0528 33.7042 36.3478 35.4939 36.0326 36.2942L36.0322 36.2952C35.9367 36.5373 36.1415 36.635 36.357 36.4518C37.7578 35.2608 38.1197 32.7655 37.8327 32.4051C37.5481 32.0481 35.0993 31.7399 33.6048 32.8069C33.375 32.971 33.4146 33.1971 33.6695 33.1661L33.6726 33.1657ZM25.9765 38.0359C29.2359 38.0359 33.0213 36.9943 35.6321 35.0361C36.0642 34.712 35.6941 34.226 35.2527 34.4164C32.3257 35.6781 29.1446 36.2885 26.2507 36.2885C21.9607 36.2885 17.8074 35.0922 14.4489 33.1058C14.155 32.932 13.937 33.2386 14.1814 33.4628C17.2946 36.3198 21.4081 38.0359 25.9765 38.0359Z" fill="#FF9900"/>
<path fill-rule="evenodd" clip-rule="evenodd" d="M30.2662 29.9233C30.0839 30.0894 29.8211 30.1005 29.616 29.9883C28.7018 29.2162 28.538 28.8593 28.0384 28.1243C26.5277 29.6884 25.4577 30.1575 23.5011 30.1575C21.1838 30.1575 19.3818 28.7044 19.3818 25.7981C19.3818 23.5275 20.5919 21.9835 22.3168 21.2266C23.81 20.5605 25.8955 20.4394 27.4913 20.2577V19.8945C27.4913 19.2284 27.5429 18.4412 27.157 17.8661C26.8222 17.3513 26.1784 17.1394 25.6122 17.1394C24.5626 17.1394 23.6292 17.686 23.4003 18.8189C23.3523 19.071 23.1715 19.3204 22.9219 19.3331L20.2547 19.0398C20.0294 18.9881 19.7788 18.8046 19.844 18.455C20.4568 15.166 23.3792 14.1724 25.9981 14.1724C27.3372 14.1724 29.0876 14.5356 30.1434 15.565C31.4819 16.8366 31.3533 18.532 31.3533 20.3789V24.7366C31.3533 26.0473 31.889 26.6224 32.392 27.3288C32.5676 27.5832 32.6072 27.8859 32.3833 28.0717C31.8211 28.5507 30.822 29.4325 30.2726 29.9295L30.2662 29.9233ZM27.4913 23.1036C27.4913 24.1936 27.5173 25.1017 26.9765 26.0706C26.5391 26.8579 25.844 27.3422 25.0715 27.3422C24.0159 27.3422 23.398 26.5245 23.398 25.3136C23.398 22.9315 25.5007 22.4982 27.4913 22.4982V23.1036Z" fill="white"/>
</svg>
