<svg width="48" height="49" viewBox="0 0 48 49" fill="none" xmlns="http://www.w3.org/2000/svg">
<path d="M45 24.0361C45 35.6281 35.6025 45.0361 24 45.0361C12.3975 45.0361 3 35.6281 3 24.0361C3 12.4336 12.3975 3.03613 24 3.03613C35.6025 3.03613 45 12.4336 45 24.0361Z" fill="#283544"/>
<path d="M33.8432 18.7222C33.7286 18.7891 31.0006 20.1999 31.0006 23.3279C31.1292 26.8953 34.4432 28.1463 34.5 28.1463C34.4432 28.2132 33.9997 29.8506 32.686 31.567C31.6435 33.0455 30.4863 34.5361 28.7292 34.5361C27.0577 34.5361 26.4577 33.5507 24.5292 33.5507C22.458 33.5507 21.872 34.5361 20.2863 34.5361C18.5292 34.5361 17.2863 32.9656 16.1869 31.501C14.7586 29.584 13.5447 26.5758 13.5018 23.6873C13.4729 22.1567 13.7878 20.6522 14.5872 19.3742C15.7155 17.5901 17.7298 16.379 19.9295 16.3391C21.6149 16.2861 23.1149 17.4173 24.1435 17.4173C25.1292 17.4173 26.972 16.3391 29.0571 16.3391C29.9571 16.3399 32.3571 16.5926 33.8432 18.7222ZM24.0009 16.0335C23.7009 14.6357 24.5292 13.2379 25.3006 12.3463C26.2863 11.268 27.8432 10.5361 29.1857 10.5361C29.2714 11.9339 28.7282 13.3048 27.7574 14.3032C26.8863 15.3815 25.3863 16.1932 24.0009 16.0335Z" fill="white"/>
</svg>
