<svg width="48" height="49" viewBox="0 0 48 49" fill="none" xmlns="http://www.w3.org/2000/svg">
<circle cx="24" cy="24.0361" r="21" fill="#105DFB"/>
<path fill-rule="evenodd" clip-rule="evenodd" d="M10.3139 32.9754V14.6513H18.7848C21.5057 14.6513 23.7114 16.857 23.7114 19.5779C23.7114 21.3069 23.1797 22.3779 21.2304 23.4766C23.5631 24.5395 24.2109 26.0126 24.2109 28.0674C24.2109 30.847 21.7416 32.9754 18.962 32.9754H10.3139ZM13.8984 17.6846V22.0908H18.0938C18.0938 22.0908 20.1328 22.0908 20.1328 19.8877C20.1328 17.6846 18.0938 17.6846 18.0938 17.6846H13.8984ZM13.8984 29.8721V25.1143H18.3984C19.125 25.1143 20.6484 25.4893 20.6484 27.7393C20.6484 29.408 19.1484 29.8564 18.3984 29.8721H13.8984Z" fill="white"/>
<path fill-rule="evenodd" clip-rule="evenodd" d="M31.875 19.7002C29.2969 19.7002 25.4766 21.5518 25.4766 26.4736C25.4766 29.4706 27.1172 33.3174 32.0391 33.3174C35.9766 33.3174 37.7891 30.4268 38.2031 28.9814H34.5C34.3125 29.6377 33.5859 30.3643 32.0391 30.3643C29.7891 30.3643 28.9922 28.4424 28.875 27.4814H38.2031V26.4736C38.2031 21.5518 34.4531 19.7002 31.875 19.7002ZM31.875 22.5127C29.775 22.5127 29 24.2471 28.875 25.1143H34.5C34.5 24.2471 33.975 22.5127 31.875 22.5127Z" fill="white"/>
<path d="M27.3984 15.6924V17.9658H36.2344V15.6924H27.3984Z" fill="white"/>
</svg>
