<svg width="37" height="37" viewBox="0 0 37 37" fill="none" xmlns="http://www.w3.org/2000/svg">
<path d="M1 5.62115C1 4.17353 2.17353 3 3.62115 3C5.06876 3 6.24228 4.17353 6.24228 5.62115V22.2654H1V5.62115Z" fill="#635EFF"/>
<path fill-rule="evenodd" clip-rule="evenodd" d="M10.8122 10.4848C10.1384 11.0962 9.71534 11.9789 9.71534 12.9604C9.71534 14.1226 10.3086 15.1463 11.2088 15.745C8.3527 16.399 6.24228 18.9362 6.24228 21.9378C6.24228 24.9395 8.3527 27.4766 11.2088 28.1306C10.3086 28.7293 9.71534 29.753 9.71534 30.9152C9.71534 31.8967 10.1384 32.7794 10.8122 33.3908C5.26281 32.5094 1 27.7315 1 21.9378C1 16.1441 5.26281 11.3662 10.8122 10.4848Z" fill="#635EFF"/>
<path fill-rule="evenodd" clip-rule="evenodd" d="M13.4505 15.5815C17.0152 15.5815 19.8723 18.4453 19.8723 21.9378C19.8723 25.4304 17.0152 28.2941 13.4505 28.2941C12.0029 28.2941 10.8293 29.4676 10.8293 30.9153C10.8293 32.3629 12.0029 33.5364 13.4505 33.5364C19.8744 33.5364 25.1146 28.3615 25.1146 21.9378C25.1146 15.5142 19.8744 10.3392 13.4505 10.3392C12.0029 10.3392 10.8293 11.5128 10.8293 12.9604C10.8293 14.408 12.0029 15.5815 13.4505 15.5815Z" fill="#635EFF"/>
<path fill-rule="evenodd" clip-rule="evenodd" d="M32.9781 15.5815C29.4134 15.5815 26.5563 18.4453 26.5563 21.9378C26.5563 25.4304 29.4134 28.2941 32.9781 28.2941C34.4257 28.2941 35.5992 29.4676 35.5992 30.9153C35.5992 32.3629 34.4257 33.5364 32.9781 33.5364C26.5542 33.5364 21.314 28.3615 21.314 21.9378C21.314 15.5142 26.5542 10.3392 32.9781 10.3392C34.4257 10.3392 35.5992 11.5128 35.5992 12.9604C35.5992 14.408 34.4257 15.5815 32.9781 15.5815Z" fill="#635EFF"/>
</svg>
