<svg width="48" height="49" viewBox="0 0 48 49" fill="none" xmlns="http://www.w3.org/2000/svg">
<path fill-rule="evenodd" clip-rule="evenodd" d="M45 24.0361C45 35.6341 35.598 45.0361 24 45.0361C12.402 45.0361 3 35.6341 3 24.0361C3 12.4382 12.402 3.03613 24 3.03613C35.598 3.03613 45 12.4382 45 24.0361ZM31.386 40.4559C29.1324 41.4712 26.6322 42.0361 24 42.0361C19.6546 42.0361 15.6689 40.4963 12.5586 37.9326C15.7942 32.5032 20.9983 28.3865 27.1845 26.5653C28.9614 31.0233 30.3741 35.6657 31.386 40.4559ZM34.1231 38.9219C33.1262 34.4388 31.7895 30.0838 30.1417 25.8852C31.5135 25.6556 32.9225 25.5361 34.3594 25.5361C36.9549 25.5361 39.457 25.9256 41.8118 26.6484C41.0711 31.7435 38.1961 36.1467 34.1231 38.9219ZM41.9942 23.5761C39.5637 22.8982 37.0028 22.5361 34.3594 22.5361C32.5166 22.5361 30.7151 22.7119 28.9704 23.0475C28.5154 21.9973 28.0405 20.9577 27.5465 19.9291C31.4736 18.1859 35.103 15.8939 38.3366 13.1505C40.549 16.0597 41.8961 19.6628 41.9942 23.5761ZM36.3279 10.9203C33.2921 13.4849 29.8856 15.6235 26.2001 17.2442C24.2546 13.5239 22.0526 9.95913 19.6176 6.57337C21.0204 6.22245 22.4884 6.03613 24 6.03613C28.7702 6.03613 33.1069 7.89167 36.3279 10.9203ZM16.6538 7.59855C11.3696 9.96373 7.4341 14.8021 6.31965 20.6414C7.34367 20.7166 8.37819 20.7549 9.42191 20.7549C14.3238 20.7549 19.0276 19.9099 23.3961 18.3574C21.412 14.5968 19.1558 11.0018 16.6538 7.59855ZM6.00458 23.6262C6.00153 23.7625 6 23.8991 6 24.0361C6 28.5242 7.64255 32.6286 10.3593 35.781C13.9381 30.1101 19.473 25.7942 26.0179 23.7828C25.6138 22.8651 25.194 21.9557 24.759 21.0551C19.9751 22.8018 14.8095 23.7549 9.42191 23.7549C8.2724 23.7549 7.13276 23.7115 6.00458 23.6262Z" fill="#E84C88"/>
</svg>
