<svg width="41" height="41" viewBox="0 0 41 41" fill="none" xmlns="http://www.w3.org/2000/svg">
<rect x="1.53" y="1.53" width="37.94" height="37.94" rx="8.82" fill="#44444F" stroke="#FAFAFB" stroke-width="2.94"/>
<path d="M16.6111 32.162C18.7578 32.162 20.5 30.4201 20.5 28.2739V24.3858H16.6111C14.4644 24.3858 12.7222 26.1277 12.7222 28.2739C12.7222 30.4201 14.4644 32.162 16.6111 32.162Z" fill="#0ACF83"/>
<path d="M12.7222 20.4977C12.7222 18.3514 14.4644 16.6096 16.6111 16.6096H20.5V24.3858H16.6111C14.4644 24.3858 12.7222 22.6439 12.7222 20.4977Z" fill="#A259FF"/>
<path d="M12.7222 12.7214C12.7222 10.5752 14.4644 8.83333 16.6111 8.83333H20.5V16.6096H16.6111C14.4644 16.6096 12.7222 14.8677 12.7222 12.7214Z" fill="#F24E1E"/>
<path d="M20.5 8.83333H24.3889C26.5356 8.83333 28.2778 10.5752 28.2778 12.7214C28.2778 14.8677 26.5356 16.6096 24.3889 16.6096H20.5V8.83333Z" fill="#FF7262"/>
<path d="M28.2778 20.4977C28.2778 22.6439 26.5356 24.3858 24.3889 24.3858C22.2422 24.3858 20.5 22.6439 20.5 20.4977C20.5 18.3514 22.2422 16.6096 24.3889 16.6096C26.5356 16.6096 28.2778 18.3514 28.2778 20.4977Z" fill="#1ABCFE"/>
</svg>
