<svg width="49" height="49" viewBox="0 0 49 49" fill="none" xmlns="http://www.w3.org/2000/svg">
<path d="M24.0723 3.03613C12.4698 3.03613 3.07227 12.4336 3.07227 24.0361C3.07227 33.3286 9.08351 41.1774 17.431 43.9599C18.481 44.1436 18.8748 43.5136 18.8748 42.9624C18.8748 42.4636 18.8485 40.8099 18.8485 39.0511C13.5723 40.0224 12.2073 37.7649 11.7873 36.5836C11.551 35.9799 10.5273 34.1161 9.63477 33.6174C8.89977 33.2236 7.84977 32.2524 9.60852 32.2261C11.2623 32.1999 12.4435 33.7486 12.8373 34.3786C14.7273 37.5549 17.746 36.6624 18.9535 36.1111C19.1373 34.7461 19.6885 33.8274 20.2923 33.3024C15.6198 32.7774 10.7373 30.9661 10.7373 22.9336C10.7373 20.6499 11.551 18.7599 12.8898 17.2899C12.6798 16.7649 11.9448 14.6124 13.0998 11.7249C13.0998 11.7249 14.8585 11.1736 18.8748 13.8774C20.5548 13.4049 22.3398 13.1686 24.1248 13.1686C25.9098 13.1686 27.6948 13.4049 29.3748 13.8774C33.391 11.1474 35.1498 11.7249 35.1498 11.7249C36.3048 14.6124 35.5698 16.7649 35.3598 17.2899C36.6985 18.7599 37.5123 20.6236 37.5123 22.9336C37.5123 30.9924 32.6035 32.7774 27.931 33.3024C28.6923 33.9586 29.3485 35.2186 29.3485 37.1874C29.3485 39.9961 29.3223 42.2536 29.3223 42.9624C29.3223 43.5136 29.716 44.1699 30.766 43.9599C34.9349 42.5525 38.5575 39.8732 41.1238 36.2991C43.6902 32.7251 45.0711 28.4362 45.0723 24.0361C45.0723 12.4336 35.6748 3.03613 24.0723 3.03613Z" fill="black"/>
</svg>
