<svg width="49" height="49" viewBox="0 0 49 49" fill="none" xmlns="http://www.w3.org/2000/svg">
<path d="M24.0848 44.5336L32.3648 19.0505H15.8048L24.0848 44.5336Z" fill="#E24329"/>
<path d="M24.0853 44.5336L15.8053 19.0506H4.20105L24.0853 44.5336Z" fill="#FC6D26"/>
<path d="M4.20076 19.0505L1.68462 26.7946C1.45512 27.5009 1.70647 28.2747 2.30733 28.7112L24.085 44.5336L4.20076 19.0505Z" fill="#FCA326"/>
<path d="M4.20117 19.0506H15.8054L10.8183 3.70236C10.5618 2.9125 9.44453 2.91272 9.18803 3.70236L4.20117 19.0506Z" fill="#E24329"/>
<path d="M24.0864 44.5336L32.3664 19.0506H43.9706L24.0864 44.5336Z" fill="#FC6D26"/>
<path d="M43.9706 19.0505L46.4868 26.7946C46.7163 27.5009 46.4649 28.2747 45.8641 28.7112L24.0864 44.5336L43.9706 19.0505Z" fill="#FCA326"/>
<path d="M43.9699 19.0506H32.3657L37.3528 3.70236C37.6093 2.9125 38.7266 2.91272 38.9831 3.70236L43.9699 19.0506Z" fill="#E24329"/>
</svg>
