<svg width="49" height="49" viewBox="0 0 49 49" fill="none" xmlns="http://www.w3.org/2000/svg">
<path d="M45.0744 24.5025C45.0744 22.7759 44.9314 21.5159 44.622 20.2092H24.503V28.0025H36.3124C36.0744 29.9392 34.7887 32.8559 31.9315 34.8158L31.8914 35.0767L38.2527 39.9061L38.6934 39.9492C42.741 36.2858 45.0744 30.8958 45.0744 24.5025Z" fill="#4285F4"/>
<path d="M24.5016 45.0361C30.2872 45.0361 35.1443 43.1694 38.692 39.9494L31.9301 34.8159C30.1206 36.0526 27.692 36.9159 24.5016 36.9159C18.835 36.9159 14.0255 33.2527 12.3111 28.1893L12.0598 28.2102L5.44527 33.2269L5.35876 33.4626C8.88252 40.3226 16.1206 45.0361 24.5016 45.0361Z" fill="#34A853"/>
<path d="M12.3123 28.1894C11.86 26.8828 11.5982 25.4827 11.5982 24.0361C11.5982 22.5893 11.86 21.1894 12.2885 19.8827L12.2766 19.6044L5.57913 14.5072L5.36 14.6093C3.90768 17.456 3.07434 20.6527 3.07434 24.0361C3.07434 27.4194 3.90768 30.616 5.36 33.4627L12.3123 28.1894Z" fill="#FBBC05"/>
<path d="M24.5017 11.1561C28.5255 11.1561 31.2397 12.8594 32.7874 14.2828L38.835 8.49613C35.1208 5.11281 30.2874 3.03613 24.5017 3.03613C16.1207 3.03613 8.88254 7.74943 5.35876 14.6094L12.2873 19.8828C14.0256 14.8195 18.8351 11.1561 24.5017 11.1561Z" fill="#EB4335"/>
</svg>
