<svg width="41" height="41" viewBox="0 0 41 41" fill="none" xmlns="http://www.w3.org/2000/svg">
<rect x="1.53" y="1.53" width="37.94" height="37.94" rx="8.82" fill="#DC395F" stroke="#FAFAFB" stroke-width="2.94"/>
<path d="M30.0515 8.83333H10.9486C9.78035 8.83333 8.83334 9.78034 8.83334 10.9486V30.0514C8.83334 31.2197 9.78035 32.1667 10.9486 32.1667H30.0515C31.2197 32.1667 32.1667 31.2197 32.1667 30.0514V10.9486C32.1667 9.78034 31.2197 8.83333 30.0515 8.83333Z" fill="#DC395F"/>
<path fill-rule="evenodd" clip-rule="evenodd" d="M18.0567 14.7699C18.0567 15.5667 17.407 16.1747 16.6313 16.1747C15.8557 16.1747 15.2061 15.5666 15.2061 14.7699C15.2061 13.9737 15.8557 13.3658 16.6313 13.3658C17.407 13.3658 18.0567 13.9737 18.0567 14.7699ZM13.55 24.7511C13.55 24.4372 13.5921 24.0524 13.6758 23.696H13.6759L14.7448 19.3289H13.0889L13.5921 17.4728H17.5748L16.0025 23.7093C15.8977 24.1079 15.8558 24.4385 15.8558 24.6686C15.8558 25.0675 16.0521 25.1841 16.3591 25.2533C16.546 25.2952 18.0356 25.2659 18.8465 23.4632L19.8792 19.3289H18.2022L18.7053 17.4728H22.2896L21.8285 19.5801C22.4573 18.406 23.7151 17.2905 24.9517 17.2905C26.2723 17.2905 27.3624 18.2313 27.3624 20.034C27.3624 20.495 27.2994 20.9967 27.1318 21.5626L26.4608 23.9723C26.3981 24.2244 26.356 24.4338 26.356 24.6224C26.356 25.0414 26.5237 25.2509 26.8382 25.2509C27.1526 25.2509 27.5509 25.0198 28.0121 23.7419L28.9344 24.0979C28.3893 26.0055 27.4042 26.8016 26.1674 26.8016C24.7211 26.8016 24.0295 25.9428 24.0295 24.7685C24.0295 24.4334 24.0713 24.0768 24.1761 23.7205L24.8679 21.247C24.9517 20.9744 24.9727 20.7231 24.9727 20.4924C24.9727 19.6962 24.4906 19.2138 23.7151 19.2138C22.7298 19.2138 22.08 19.921 21.7446 21.2835L20.4029 26.6646H18.0555L18.4768 24.9736C17.7868 26.1072 16.8284 26.8092 15.6462 26.8092C14.2208 26.8092 13.55 25.9881 13.55 24.7511Z" fill="white"/>
</svg>
