<svg width="48" height="49" viewBox="0 0 48 49" fill="none" xmlns="http://www.w3.org/2000/svg">
<circle cx="24" cy="24.0361" r="21" fill="#FF3366"/>
<path d="M17.0391 16.3252C18.4888 16.3252 19.6641 15.1499 19.6641 13.7002C19.6641 12.2504 18.4888 11.0752 17.0391 11.0752C15.5893 11.0752 14.4141 12.2504 14.4141 13.7002C14.4141 15.1499 15.5893 16.3252 17.0391 16.3252Z" fill="white"/>
<path d="M11.5547 18.5752L10.6406 21.9268H13.6406C13.0391 24.3721 11.7797 29.5158 11.5547 30.5283C11.2734 31.7939 11.2265 35.4033 15.0234 35.4033C17.6736 35.4033 19.3639 33.6913 20.3068 32.2934L19.5938 35.1455H23.8594L26.0859 26.1332C26.4023 24.6338 27.1471 21.7393 29.8359 21.7393C33.0338 21.7393 31.8606 25.5261 31.2857 27.3819C31.2623 27.4575 31.2398 27.5298 31.2188 27.5986C30.7875 29.0049 30.3281 30.6455 30.3281 31.7705C30.3281 33.0361 30.9141 35.4033 34.1953 35.4033C37.4766 35.4033 38.875 32.1533 39.1641 30.5283L37.5 29.8486C37.3828 30.7158 36.3281 32.5908 35.3438 32.5908C33.9962 32.5908 34.6731 30.3189 35.3955 27.8942C35.7159 26.8188 36.0453 25.7133 36.2109 24.7627C36.6297 22.3593 36.2109 18.2705 32.0391 18.2705C29.448 18.2705 27.4133 20.5794 26.4454 22.1823L27.2578 18.5752H20.7656L19.875 21.9268H22.8984C22.8984 21.9268 21.1043 29.2386 20.9883 29.4678C19.7695 31.876 17.9262 32.6843 16.5469 32.5908C15.4406 32.5158 15.5703 31.1846 15.7734 30.5283L18.7734 18.5752H11.5547Z" fill="white"/>
</svg>
