<svg width="49" height="49" viewBox="0 0 49 49" fill="none" xmlns="http://www.w3.org/2000/svg">
<path d="M24.0723 3.03613C12.4895 3.03613 3.07227 12.4533 3.07227 24.0361C3.07227 35.6189 12.4895 45.0361 24.0723 45.0361C35.6551 45.0361 45.0723 35.6189 45.0723 24.0361C45.0723 12.4533 35.6551 3.03613 24.0723 3.03613Z" fill="#FDDD4C"/>
<path d="M14.8755 29.5114C14.4163 28.8162 15.5713 27.764 15.1015 26.8806C14.8307 26.3711 14.3881 26.0536 13.8565 25.987C13.3464 25.923 12.8208 26.1097 12.4859 26.4747C11.957 27.0502 11.8747 27.8337 11.977 28.1109C12.0145 28.2125 12.0733 28.2402 12.1155 28.2462C12.4035 28.2841 12.5656 27.5448 12.6651 27.3908C12.94 26.9664 13.5644 26.8379 13.9956 27.1169C14.8132 27.6457 14.1043 28.5004 14.1654 29.2223C14.225 29.9252 14.6629 30.2077 15.0561 30.2374C15.4385 30.2519 15.706 30.0394 15.7735 29.8843C15.9354 29.514 15.2533 30.0834 14.8755 29.5114Z" fill="black"/>
<path d="M31.9588 23.1299C31.7444 23.1002 31.51 23.1009 31.2661 23.1299C31.0809 22.8962 30.9151 22.518 30.8215 22.0765C30.655 21.2911 30.6724 20.7222 31.1371 20.6483C31.6018 20.5744 31.8264 21.0496 31.9929 21.835C32.1046 22.363 32.0832 22.8481 31.9588 23.1299Z" fill="black"/>
<path d="M26.8692 23.5972C26.8876 23.775 26.8941 23.955 26.8888 24.1207C27.3385 24.1471 27.657 24.3607 27.7418 24.4961C27.7852 24.5661 27.7678 24.6116 27.7538 24.6327C27.7073 24.7052 27.6075 24.694 27.3986 24.6705C27.216 24.65 27.0195 24.632 26.8152 24.6414C26.7041 24.9823 26.3745 25.0142 26.1429 24.7621C25.9811 24.8114 25.6634 25.0143 25.5687 24.7938C25.5679 24.6844 25.6823 24.5254 25.8895 24.3849C25.7481 24.1151 25.6533 23.8262 25.5973 23.5272C25.3035 23.5801 25.0393 23.6624 24.8322 23.7268C24.7349 23.7571 24.3502 23.9309 24.3051 23.7351C24.275 23.5998 24.4856 23.3767 24.7082 23.2156C24.957 23.039 25.233 22.9135 25.5191 22.841C25.513 22.415 25.6217 22.1178 25.9312 22.0686C26.3149 22.0076 26.5528 22.303 26.7174 22.8501C27.1811 22.979 27.6443 23.2985 27.8488 23.6288C27.9283 23.7568 27.9437 23.8558 27.8922 23.908C27.7637 24.0412 27.0516 23.655 26.8692 23.5972Z" fill="black"/>
<path d="M29.9188 25.5118C30.213 25.6544 30.5366 25.5983 30.6423 25.3864C30.7479 25.1746 30.5948 24.8875 30.3006 24.7449C30.0064 24.6023 29.6828 24.6584 29.5772 24.8703C29.4715 25.0822 29.6246 25.3693 29.9188 25.5118Z" fill="black"/>
<path d="M31.367 24.4598C31.3724 24.1357 31.5709 23.877 31.8096 23.8809C32.0483 23.8856 32.2376 24.1509 32.2322 24.4743C32.2269 24.7977 32.0283 25.0564 31.7896 25.0524C31.5509 25.0485 31.3617 24.7832 31.367 24.4598Z" fill="black"/>
<path fill-rule="evenodd" clip-rule="evenodd" d="M37.84 28.4284C37.838 28.4216 37.8447 28.4449 37.84 28.4284C38.3194 28.4284 39.0723 28.9722 39.0723 30.2862C39.0723 31.5937 38.5227 33.0747 38.3929 33.4034C36.4132 38.0868 31.688 40.6937 26.0595 40.5287C20.8122 40.375 16.3371 37.6419 14.3787 33.1863C13.1946 33.1876 11.9737 32.6735 11.0456 31.8617C10.0674 31.0063 9.46432 29.8995 9.34664 28.7452C9.25504 27.8462 9.3667 27.01 9.6522 26.2807L8.55232 25.3607C3.51893 21.1657 19.2616 3.8936 24.2964 8.22847C24.3218 8.25025 26.0094 9.8844 26.0134 9.88836C28.441 8.87091 34.9456 6.93373 34.9529 11.4433C34.9556 12.9409 33.9887 14.6872 32.4395 16.2719C34.2299 17.9108 33.7578 20.2389 34.0429 22.3749L34.6647 22.5451C35.8502 22.8732 36.6933 23.3107 37.1058 23.7384C37.5184 24.1654 37.723 24.5793 37.7972 25.0643C37.8667 25.4557 37.8574 26.1467 37.3345 26.9196C37.5228 27.4182 37.6946 27.9152 37.84 28.4284ZM14.2898 31.9712C14.4656 31.9752 14.6401 31.964 14.8113 31.9349C16.6507 31.6254 17.1321 29.6533 16.8292 27.7169C16.4869 25.5303 14.9885 24.7594 13.9715 24.7046C13.6887 24.6901 13.4259 24.7152 13.2093 24.7581C11.394 25.1191 10.369 26.6437 10.5709 28.6237C10.7534 30.4156 12.5895 31.9263 14.2898 31.9712ZM10.1784 25.2953C10.7875 24.4222 11.7831 23.7906 12.9131 23.5734C14.3513 19.7626 16.753 16.2514 19.9316 13.8351C22.2905 11.8928 24.8346 10.4995 24.8346 10.4995C24.8346 10.4995 23.4646 8.93137 23.0507 8.81587C20.5053 8.13739 15.0079 11.8796 11.4976 16.8243C10.0774 18.8247 8.04416 22.3676 9.01634 24.1898C9.13603 24.4156 9.81468 24.9957 10.1784 25.2953ZM30.8154 31.0961C30.8195 31.137 30.7941 31.1792 30.7573 31.1944C30.7573 31.1944 28.712 32.1336 25.4631 31.1416C25.58 32.1155 26.7609 32.4845 27.586 32.618C31.6118 33.3018 35.3755 31.0294 36.2226 30.4572C36.3681 30.3589 36.2208 30.6115 36.1945 30.6486C35.1575 31.9692 32.3693 33.4985 28.742 33.4978C27.1601 33.4971 25.5788 32.9474 24.9984 32.1019C24.0978 30.7905 24.9536 28.8758 26.4547 29.0751C28.992 29.358 31.5931 29.1455 33.9419 28.0693C35.9899 27.1308 36.7635 26.0986 36.6472 25.2623C36.4667 23.9664 34.5454 23.7637 33.5742 23.4487C33.1516 23.3107 32.943 23.2005 32.8955 22.4158C32.8748 22.0732 32.8146 20.878 32.7926 20.3836C32.7538 19.5184 32.6481 18.335 31.9046 17.8466C31.7107 17.7192 31.4954 17.6579 31.2688 17.646C31.088 17.6374 30.9809 17.6622 30.9233 17.6755C30.9103 17.6785 30.8999 17.6809 30.8917 17.6823C30.4902 17.7497 30.2442 17.9528 29.9541 18.1923C29.9373 18.2061 29.9205 18.22 29.9034 18.234C28.9761 18.997 28.1931 19.1217 27.3219 19.0848C27.0506 19.0734 26.7709 19.0463 26.4759 19.0177C26.2046 18.9914 25.9203 18.9639 25.6176 18.9462L25.2478 18.925C23.7889 18.8511 22.2243 20.0946 21.9642 21.8607C21.6736 23.8321 22.7755 25.0396 23.4921 25.8249C23.6692 26.0189 23.8228 26.1872 23.926 26.3348C23.9922 26.4239 24.069 26.5493 24.069 26.6688C24.069 26.8114 23.9754 26.9242 23.8838 27.0206C22.3955 28.5313 21.9194 30.9317 22.4804 32.9322C22.5506 33.1817 22.6395 33.4206 22.7445 33.6489C24.0604 36.6843 28.143 38.098 32.1306 36.8123C34.9254 35.9111 37.3947 33.7337 37.8975 30.7298C38.0172 29.947 37.8413 29.6447 37.602 29.4989C37.3486 29.3451 37.045 29.3985 37.045 29.3985C37.045 29.3985 36.9066 28.4633 36.5148 27.6133C35.352 28.5188 33.8557 29.155 32.7163 29.4777C30.8909 29.9947 28.9191 30.1959 27.0328 29.9522C26.2677 29.8533 25.7537 29.7869 25.5333 30.4935C28.0494 31.403 30.7125 31.0136 30.7125 31.0136C30.764 31.0083 30.8101 31.0452 30.8154 31.0961ZM23.5562 13.4471C22.1802 14.142 20.6437 15.3795 19.396 16.8032C19.3519 16.854 19.4174 16.9239 19.4716 16.885C20.5494 16.1108 22.0271 15.3914 23.9627 14.9255C26.1311 14.4034 28.2185 14.6225 29.4936 14.9109C29.5578 14.9255 29.5979 14.8166 29.541 14.7849C28.6986 14.3183 27.4055 14.0015 26.4881 13.9949C26.4433 13.9942 26.4179 13.9427 26.4447 13.9071C26.6031 13.6965 26.8204 13.4886 27.019 13.3382C27.0631 13.3039 27.0364 13.2332 26.9802 13.2365C25.8391 13.3057 23.2326 14.4942 23.242 14.4509C23.3088 14.1341 23.5194 13.7157 23.6284 13.5203C23.6545 13.4741 23.6037 13.4233 23.5562 13.4471Z" fill="black"/>
</svg>
