<svg width="48" height="49" viewBox="0 0 48 49" fill="none" xmlns="http://www.w3.org/2000/svg">
<path d="M27.8392 3.16013L27.82 12.4009L27.8008 21.6417L26.9187 19.4966V19.491L25.7746 40.0628C26.8995 42.7911 27.5004 44.2487 27.5068 44.2542C27.5132 44.2597 28.1524 44.2927 28.9258 44.3257C31.2652 44.4247 34.1672 44.6392 36.3724 44.8758C36.8837 44.9308 37.3184 44.9583 37.3503 44.9363C37.3823 44.9143 37.3887 35.5084 37.3823 24.0289L37.3631 3.16013H27.8392Z" fill="url(#paint0_linear_58_316)"/>
<path d="M10.6106 3.13245V24.0233C10.6106 35.5139 10.6234 44.9252 10.6426 44.9417C10.6618 44.9582 11.4863 44.8867 12.4835 44.7932C13.4806 44.6997 14.8549 44.5787 15.5388 44.5292C16.5871 44.4522 19.7319 44.2816 20.0899 44.2761C20.1985 44.2761 20.2049 43.8086 20.2177 35.4259L20.2369 26.5756L20.9975 28.4237C21.1126 28.7097 21.1509 28.7978 21.266 29.0783L22.4101 8.51194C22.1673 7.92338 22.2951 8.23141 22.0202 7.56035C21.087 5.28865 20.2944 3.36897 20.2625 3.28097L20.1985 3.12695H10.6106V3.13245Z" fill="url(#paint1_linear_58_316)"/>
<path d="M10.6106 3.13245L20.2305 26.5919V26.5809L20.9912 28.4291C25.2163 38.7204 27.4854 44.2429 27.4982 44.2539C27.5046 44.2594 28.1438 44.2924 28.9172 44.3254C31.2567 44.4244 34.1587 44.6389 36.3639 44.8754C36.8689 44.9304 37.3099 44.9579 37.3355 44.9359L27.7986 21.636V21.6415L26.9166 19.4963C26.0536 17.4006 25.4784 15.998 22.0075 7.56032C21.0743 5.28863 20.2817 3.36897 20.2497 3.28097L20.1858 3.12695H15.3982L10.6106 3.13245Z" fill="#E30A17"/>
<defs>
<linearGradient id="paint0_linear_58_316" x1="41.6779" y1="34.4018" x2="26.4344" y2="41.0961" gradientUnits="userSpaceOnUse">
<stop stop-color="#B20610"/>
<stop offset="0.255959" stop-color="#B20610"/>
<stop offset="1" stop-color="#590004"/>
</linearGradient>
<linearGradient id="paint1_linear_58_316" x1="5.98811" y1="12.2929" x2="22.4735" y2="5.13671" gradientUnits="userSpaceOnUse">
<stop stop-color="#B20610"/>
<stop offset="0.255959" stop-color="#B20610"/>
<stop offset="1" stop-color="#590004"/>
</linearGradient>
</defs>
</svg>
