<svg width="49" height="49" viewBox="0 0 49 49" fill="none" xmlns="http://www.w3.org/2000/svg">
<path fill-rule="evenodd" clip-rule="evenodd" d="M8.64626 43.8628L3.48722 37.4358C2.24596 35.8895 1.57227 33.988 1.57227 32.0309V8.75861C1.57227 5.8271 3.91764 3.39459 6.94333 3.18801L30.8705 1.55441C32.6088 1.43573 34.3365 1.89777 35.7644 2.86319L44.1711 8.547C45.6759 9.56442 46.5723 11.2276 46.5723 13.0025V39.4609C46.5723 42.3298 44.2661 44.7051 41.3037 44.8874L14.7473 46.5221C12.3833 46.6677 10.0983 45.6716 8.64626 43.8628Z" fill="white"/>
<path d="M16.9445 20.4042V20.0995C16.9445 19.3272 17.5631 18.6866 18.3603 18.6334L24.1673 18.2457L32.198 30.0714V19.6924L30.1309 19.4168V19.2721C30.1309 18.4907 30.7636 17.8459 31.571 17.8045L36.8548 17.5339V18.2942C36.8548 18.6512 36.5893 18.9565 36.2255 19.018L34.954 19.2331V36.0417L33.3583 36.5904C32.0251 37.0489 30.541 36.5582 29.7778 35.4065L21.9815 23.6419V34.8706L24.3812 35.3298L24.3477 35.5524C24.243 36.2496 23.6411 36.7769 22.9129 36.8093L16.9445 37.075C16.8656 36.3252 17.4275 35.6545 18.2027 35.573L18.9878 35.4906V20.519L16.9445 20.4042Z" fill="black"/>
<path fill-rule="evenodd" clip-rule="evenodd" d="M31.0847 4.48631L7.15759 6.11991C5.72437 6.21776 4.6134 7.37 4.6134 8.75862V32.0309C4.6134 33.3357 5.06253 34.6033 5.89004 35.6342L11.0491 42.0612C11.8832 43.1003 13.1959 43.6725 14.5539 43.5889L41.1103 41.9542C42.4714 41.8704 43.531 40.779 43.531 39.4609V13.0025C43.531 12.187 43.1192 11.4229 42.4278 10.9554L34.0211 5.27157C33.1643 4.69232 32.1277 4.4151 31.0847 4.48631ZM8.34409 9.12163C8.01131 8.87525 8.16968 8.36195 8.58774 8.33197L31.2457 6.7068C31.9676 6.65502 32.6849 6.85381 33.2688 7.26745L37.8149 10.4883C37.9875 10.6106 37.9065 10.8746 37.6929 10.8862L13.6982 12.1912C12.972 12.2307 12.2553 12.0173 11.6779 11.5899L8.34409 9.12163ZM12.5727 16.2822C12.5727 15.5027 13.2025 14.8588 14.0078 14.8149L39.377 13.4333C40.1618 13.3906 40.8225 13.9941 40.8225 14.7539V37.664C40.8225 38.4421 40.195 39.0854 39.3913 39.1311L14.1827 40.5654C13.3093 40.6151 12.5727 39.944 12.5727 39.0984V16.2822Z" fill="black"/>
</svg>
