<svg width="219" height="219" viewBox="0 0 219 219" fill="none" xmlns="http://www.w3.org/2000/svg">
<g clip-path="url(#clip0_13_44)">
<rect width="219" height="219" fill="white"/>
<rect width="219" height="219" fill="#0BAB7C"/>
<path d="M42.3238 130.735V88.6833H51.2147V123.405H69.2427V130.735H42.3238ZM89.2163 131.351C86.0268 131.351 83.2685 130.674 80.9415 129.318C78.6281 127.949 76.8417 126.047 75.5823 123.61C74.323 121.16 73.6933 118.319 73.6933 115.089C73.6933 111.831 74.323 108.984 75.5823 106.547C76.8417 104.097 78.6281 102.194 80.9415 100.839C83.2685 99.47 86.0268 98.7856 89.2163 98.7856C92.4058 98.7856 95.1572 99.47 97.4706 100.839C99.7977 102.194 101.591 104.097 102.85 106.547C104.11 108.984 104.739 111.831 104.739 115.089C104.739 118.319 104.11 121.16 102.85 123.61C101.591 126.047 99.7977 127.949 97.4706 129.318C95.1572 130.674 92.4058 131.351 89.2163 131.351ZM89.2574 124.575C90.7084 124.575 91.9198 124.165 92.8917 123.343C93.8636 122.508 94.596 121.372 95.0888 119.935C95.5952 118.497 95.8485 116.862 95.8485 115.027C95.8485 113.193 95.5952 111.557 95.0888 110.12C94.596 108.683 93.8636 107.546 92.8917 106.711C91.9198 105.876 90.7084 105.459 89.2574 105.459C87.7927 105.459 86.5607 105.876 85.5614 106.711C84.5758 107.546 83.8298 108.683 83.3233 110.12C82.8305 111.557 82.5841 113.193 82.5841 115.027C82.5841 116.862 82.8305 118.497 83.3233 119.935C83.8298 121.372 84.5758 122.508 85.5614 123.343C86.5607 124.165 87.7927 124.575 89.2574 124.575ZM124.636 143.219C121.802 143.219 119.373 142.829 117.347 142.049C115.334 141.282 113.733 140.235 112.542 138.907C111.351 137.579 110.578 136.087 110.222 134.431L118.312 133.343C118.558 133.972 118.948 134.561 119.482 135.109C120.016 135.656 120.721 136.094 121.597 136.423C122.487 136.765 123.568 136.936 124.841 136.936C126.744 136.936 128.311 136.471 129.543 135.54C130.789 134.623 131.412 133.083 131.412 130.92V125.15H131.042C130.659 126.026 130.084 126.854 129.317 127.635C128.551 128.415 127.565 129.051 126.361 129.544C125.156 130.037 123.719 130.283 122.049 130.283C119.681 130.283 117.525 129.736 115.581 128.641C113.651 127.532 112.111 125.841 110.961 123.569C109.825 121.283 109.257 118.395 109.257 114.904C109.257 111.331 109.838 108.347 111.002 105.952C112.165 103.556 113.712 101.763 115.642 100.572C117.586 99.3811 119.715 98.7856 122.028 98.7856C123.794 98.7856 125.272 99.0868 126.463 99.6891C127.654 100.278 128.612 101.017 129.338 101.907C130.077 102.783 130.645 103.645 131.042 104.494H131.371V99.1963H140.056V131.043C140.056 133.726 139.399 135.971 138.085 137.778C136.771 139.585 134.95 140.94 132.623 141.844C130.31 142.761 127.647 143.219 124.636 143.219ZM124.821 123.713C126.231 123.713 127.422 123.364 128.393 122.666C129.379 121.954 130.132 120.941 130.652 119.627C131.186 118.299 131.453 116.711 131.453 114.863C131.453 113.015 131.193 111.413 130.673 110.058C130.152 108.689 129.4 107.629 128.414 106.876C127.428 106.123 126.231 105.746 124.821 105.746C123.383 105.746 122.172 106.136 121.186 106.917C120.201 107.683 119.455 108.751 118.948 110.12C118.442 111.489 118.188 113.07 118.188 114.863C118.188 116.684 118.442 118.258 118.948 119.586C119.468 120.9 120.214 121.92 121.186 122.645C122.172 123.357 123.383 123.713 124.821 123.713ZM161.267 131.351C158.077 131.351 155.319 130.674 152.992 129.318C150.679 127.949 148.892 126.047 147.633 123.61C146.374 121.16 145.744 118.319 145.744 115.089C145.744 111.831 146.374 108.984 147.633 106.547C148.892 104.097 150.679 102.194 152.992 100.839C155.319 99.47 158.077 98.7856 161.267 98.7856C164.456 98.7856 167.208 99.47 169.521 100.839C171.848 102.194 173.642 104.097 174.901 106.547C176.16 108.984 176.79 111.831 176.79 115.089C176.79 118.319 176.16 121.16 174.901 123.61C173.642 126.047 171.848 127.949 169.521 129.318C167.208 130.674 164.456 131.351 161.267 131.351ZM161.308 124.575C162.759 124.575 163.97 124.165 164.942 123.343C165.914 122.508 166.647 121.372 167.139 119.935C167.646 118.497 167.899 116.862 167.899 115.027C167.899 113.193 167.646 111.557 167.139 110.12C166.647 108.683 165.914 107.546 164.942 106.711C163.97 105.876 162.759 105.459 161.308 105.459C159.843 105.459 158.611 105.876 157.612 106.711C156.626 107.546 155.88 108.683 155.374 110.12C154.881 111.557 154.635 113.193 154.635 115.027C154.635 116.862 154.881 118.497 155.374 119.935C155.88 121.372 156.626 122.508 157.612 123.343C158.611 124.165 159.843 124.575 161.308 124.575Z" fill="white"/>
</g>
</svg>