<svg width="49" height="49" viewBox="0 0 49 49" fill="none" xmlns="http://www.w3.org/2000/svg">
<path fill-rule="evenodd" clip-rule="evenodd" d="M19.8552 17.4951C19.8329 17.4951 19.7899 17.4951 19.7676 17.4951C19.3982 17.4501 19.0941 17.1115 19.0941 16.728C19.0719 16.3668 18.8759 7.92721 23.6369 6.0092C24.8327 5.53527 25.9424 5.62548 26.8771 6.32515C28.0284 7.16006 28.8547 8.82989 29.3547 11.267C29.7019 12.982 29.7672 14.4713 29.7672 14.539C29.7894 14.9 29.5076 15.1709 29.1367 15.1032C28.7672 15.058 28.4631 14.7196 28.4631 14.3585C28.3979 12.824 27.8978 8.60429 26.2466 7.38566C25.7244 7.00209 25.0715 6.95691 24.2897 7.27286C20.2023 8.9201 20.3982 16.8408 20.3982 16.931C20.3982 17.2469 20.1816 17.4951 19.8552 17.4951Z" fill="#595961"/>
<path opacity="0.46" fill-rule="evenodd" clip-rule="evenodd" d="M26.6367 6.37019C25.7673 5.73829 24.7465 5.64808 23.6367 6.07683C21.7021 6.86656 20.3328 8.9427 19.6592 12.1019C19.1592 14.4261 19.2245 16.5248 19.2245 16.615C19.2245 16.7278 19.2675 16.8408 19.3551 16.931C19.4411 17.0212 19.5286 17.089 19.6369 17.089C19.6592 17.089 19.6815 17.089 19.7022 17.089C19.8981 17.089 20.0509 16.931 20.0509 16.7278C20.0509 16.6376 19.8551 8.58157 24.0507 6.88916C24.8979 6.55076 25.6367 6.59579 26.2465 7.04713C28.006 8.33338 28.5282 12.6887 28.5935 14.2457C28.5935 14.4713 28.7894 14.697 29.0282 14.7195C29.2463 14.7421 29.4199 14.5841 29.4199 14.3585C29.3976 14.0877 29.1588 8.22058 26.6367 6.37019Z" fill="#B2B2C2"/>
<path opacity="0.46" fill-rule="evenodd" clip-rule="evenodd" d="M19.6593 16.8181C19.637 16.8181 19.637 16.8181 19.6162 16.8181C19.4857 16.7956 19.3759 16.6602 19.3551 16.5248C19.3551 16.4344 19.2899 14.381 19.7898 12.0567C20.4411 8.96525 21.8119 6.9117 23.7021 6.14441C24.7673 5.71566 25.7243 5.80602 26.5507 6.39275C28.9853 8.17537 29.2241 13.9523 29.2241 14.2005C29.2241 14.3359 29.1158 14.4261 28.9853 14.4036C28.8547 14.381 28.7464 14.2682 28.7241 14.1103C28.7241 14.0425 28.4853 8.37852 26.2895 6.75373C25.6367 6.27995 24.8326 6.21218 23.9202 6.57316C19.6593 8.35593 19.8551 16.5248 19.8551 16.615C19.8759 16.7278 19.7898 16.8181 19.6593 16.8181Z" fill="#B2B2C2"/>
<path opacity="0.62" fill-rule="evenodd" clip-rule="evenodd" d="M21.4204 10.3645C21.594 10.0261 21.7675 9.68752 21.9203 9.32654C21.855 9.43934 21.4203 10.6128 20.094 10.4322C20.0717 10.4322 20.8759 10.6804 21.4204 10.3645Z" fill="#595961"/>
<path opacity="0.62" fill-rule="evenodd" clip-rule="evenodd" d="M20.9411 11.8084C21.0717 11.4473 21.2022 11.0637 21.2897 10.7028C21.2467 10.8381 21.0286 12.0566 19.637 12.0566C19.637 12.0566 20.4411 12.2146 20.9411 11.8084Z" fill="#595961"/>
<path opacity="0.62" fill-rule="evenodd" clip-rule="evenodd" d="M28.5714 8.8977C28.3978 8.4914 28.2019 8.10782 28.0061 7.70166C28.0714 7.83705 28.7242 9.1233 27.9854 10.0484C27.9854 10.0484 28.5506 9.59723 28.5714 8.8977Z" fill="#595961"/>
<path opacity="0.62" fill-rule="evenodd" clip-rule="evenodd" d="M27.3772 6.86677C27.0285 6.57341 26.6813 6.30263 26.3326 6.05444C26.4632 6.16724 27.6159 7.00216 27.5507 8.26597C27.5284 8.26597 27.7243 7.52126 27.3772 6.86677Z" fill="#595961"/>
<path opacity="0.62" fill-rule="evenodd" clip-rule="evenodd" d="M22.0507 9.12301C22.3118 8.85224 22.5284 8.55887 22.7673 8.24292C22.6812 8.33313 21.9632 9.2584 20.6814 8.91986C20.6814 8.91986 21.4202 9.32616 22.0507 9.12301Z" fill="#595961"/>
<path opacity="0.62" fill-rule="evenodd" clip-rule="evenodd" d="M22.8548 8.08515C23.159 7.85955 23.4408 7.63381 23.7242 7.38562C23.6159 7.45339 22.7243 8.19794 21.4855 7.65639C21.4855 7.65639 22.202 8.17536 22.8548 8.08515Z" fill="#595961"/>
<path opacity="0.62" fill-rule="evenodd" clip-rule="evenodd" d="M24.0285 7.34017C24.3979 7.22738 24.7466 7.09199 25.0937 6.9566C24.9632 7.00163 23.8548 7.40779 22.7673 6.55029C22.7896 6.55029 23.3549 7.22738 24.0285 7.34017Z" fill="#595961"/>
<path opacity="0.62" fill-rule="evenodd" clip-rule="evenodd" d="M25.0937 6.93441C25.3979 6.97959 25.702 7.00219 26.0061 7.02477C25.8978 7.00219 24.9408 6.93442 24.3978 6.03174C24.3978 6.03174 24.616 6.64105 25.0937 6.93441Z" fill="#595961"/>
<path opacity="0.62" fill-rule="evenodd" clip-rule="evenodd" d="M26.3549 7.43037C26.5715 7.67871 26.8118 7.92689 27.0715 8.15249C26.9854 8.06228 26.2466 7.31758 26.4202 6.39246C26.3979 6.39246 26.1591 6.91141 26.3549 7.43037Z" fill="#595961"/>
<path opacity="0.74" fill-rule="evenodd" clip-rule="evenodd" d="M28.9853 14.0877C28.9853 13.8393 28.7464 8.1302 26.3771 6.39276C25.9201 6.05422 25.4201 5.89624 24.8979 5.89624C24.5062 5.89624 24.0938 5.98645 23.6591 6.16701C21.7674 6.91172 20.4411 8.92009 19.7898 11.989C19.2899 14.2907 19.3551 16.3442 19.3551 16.4344C19.3551 16.5022 19.4204 16.5698 19.4857 16.5698H19.5064C19.5717 16.5698 19.6162 16.5248 19.6162 16.457C19.6162 16.3668 19.3981 8.1302 23.7674 6.37017C24.7243 5.98645 25.5507 6.05422 26.2465 6.57318C28.5061 8.22056 28.7464 13.9749 28.7464 14.0425C28.7464 14.1103 28.8117 14.1779 28.877 14.1779C28.877 14.1779 28.8769 14.1779 28.8977 14.1779C28.9422 14.2005 28.9853 14.1553 28.9853 14.0877Z" fill="url(#paint0_linear_81_1047)"/>
<path fill-rule="evenodd" clip-rule="evenodd" d="M29.3547 11.2672C28.8547 8.83006 28.0283 7.18268 26.877 6.32517C26.2465 5.87398 25.5715 5.67083 24.8326 5.716C25.4202 5.76103 25.9632 5.96419 26.4631 6.32517C27.6159 7.16023 28.4423 8.83006 28.9423 11.2672C29.2894 12.9822 29.3547 14.4714 29.3547 14.5392C29.3547 14.81 29.2241 15.0131 29.006 15.0808C29.0505 15.1033 29.0936 15.1033 29.1159 15.1033C29.4853 15.1485 29.7672 14.9002 29.7464 14.5392C29.7672 14.4714 29.7018 13.0048 29.3547 11.2672Z" fill="url(#paint1_linear_81_1047)"/>
<path fill-rule="evenodd" clip-rule="evenodd" d="M23.8772 7.27293C19.7898 8.92017 19.9856 16.8408 19.9856 16.931C19.9856 17.2018 19.8551 17.405 19.637 17.4726C19.6815 17.4952 19.7023 17.4952 19.7468 17.4952C19.7676 17.4952 19.8121 17.4952 19.8328 17.4952C20.1592 17.4952 20.3758 17.247 20.3758 16.931C20.3758 16.8408 20.1815 8.94276 24.2674 7.29552C24.5507 7.18272 24.8118 7.11496 25.0507 7.09237C24.702 7.02475 24.3119 7.09237 23.8772 7.27293Z" fill="url(#paint2_linear_81_1047)"/>
<path fill-rule="evenodd" clip-rule="evenodd" d="M30.0713 9.23589L11.6374 15.148C11.6374 15.148 10.8556 15.3738 10.6597 15.622C10.4639 15.8702 10.4209 16.5697 10.4209 16.5697L7.57227 39.3612L28.9631 43.5134L30.6158 9.2133C30.377 9.16812 30.1366 9.2133 30.0713 9.23589Z" fill="url(#paint3_linear_81_1047)"/>
<path fill-rule="evenodd" clip-rule="evenodd" d="M36.442 12.1695C36.442 12.1695 36.4198 11.9889 36.3115 11.9213C36.2239 11.8535 36.1156 11.8535 36.1156 11.8535L33.0935 11.6279L30.8769 9.34877C30.7894 9.281 30.7019 9.23597 30.5936 9.21338L28.9424 43.5134L40.5279 40.9183L36.442 12.1695Z" fill="url(#paint4_linear_81_1047)"/>
<path fill-rule="evenodd" clip-rule="evenodd" d="M22.4633 28.2814C22.1369 27.83 21.7467 27.4239 21.355 27.0627C20.9633 26.7017 20.5509 26.4084 20.137 26.1376C19.8551 25.957 19.594 25.7765 19.3759 25.5959C19.1593 25.4155 18.9857 25.2349 18.8551 25.0769C18.7245 24.8964 18.6162 24.7384 18.5509 24.558C18.4856 24.3774 18.4634 24.1969 18.4634 24.0163C18.4634 23.7681 18.5287 23.5199 18.6162 23.3168C18.7023 23.1138 18.8551 22.9332 19.0064 22.7752C19.1815 22.6172 19.3758 22.5044 19.6162 22.4142C19.855 22.3239 20.1369 22.2788 20.441 22.2563C20.7674 22.2337 21.0939 22.2563 21.398 22.2788C21.7021 22.3013 21.9855 22.3691 22.2674 22.4367C22.5285 22.5044 22.7896 22.5947 23.0062 22.685C23.2243 22.7752 23.4409 22.8654 23.5937 22.9558L25.0284 18.5329C24.8118 18.4201 24.5507 18.3071 24.2673 18.2395C23.9632 18.1492 23.6368 18.0815 23.2674 18.0364C22.8979 17.9913 22.5062 17.9688 22.0938 17.9688C21.6814 17.9688 21.2467 17.9913 20.7898 18.059C19.812 18.1943 18.9412 18.4651 18.1593 18.8713C17.4204 19.255 16.7676 19.7514 16.2246 20.3607C15.7024 20.9474 15.2899 21.6243 14.9858 22.3916C14.7024 23.1363 14.5289 23.9713 14.4858 24.8738C14.4636 25.4155 14.5066 25.9119 14.6372 26.3632C14.7455 26.8145 14.9205 27.2433 15.1594 27.6495C15.376 28.0556 15.6593 28.4167 15.9635 28.7551C16.2676 29.0937 16.637 29.4096 17.0065 29.703C17.3106 29.9286 17.5717 30.1542 17.7898 30.3573C18.0064 30.5605 18.1815 30.7635 18.3106 30.9892C18.4412 31.1923 18.5287 31.3954 18.5939 31.621C18.6592 31.8242 18.6815 32.0498 18.6592 32.2755C18.6592 32.5011 18.594 32.7267 18.5065 32.9073C18.4204 33.0878 18.3106 33.2684 18.137 33.4038C17.9857 33.5392 17.7899 33.6294 17.5718 33.6745C17.3552 33.7196 17.0941 33.7422 16.8107 33.6971C16.4858 33.652 16.1593 33.5618 15.8552 33.4262C15.551 33.3134 15.2455 33.1554 14.9636 32.9975C14.6817 32.8396 14.4206 32.6591 14.2025 32.5011C13.9636 32.3431 13.7678 32.1626 13.6164 32.0272L12.6372 35.3896C12.79 35.6152 13.0067 35.8183 13.2455 36.0213C13.4859 36.2245 13.7678 36.4275 14.0942 36.6306C14.4206 36.8112 14.7678 36.9916 15.1372 37.1496C15.5066 37.3076 15.9205 37.443 16.3329 37.5559H16.3552H16.3759H16.3982H16.4205C17.3107 37.7589 18.1593 37.8041 18.9634 37.6913C19.7898 37.5783 20.5508 37.285 21.2021 36.8338C21.8757 36.3599 22.4202 35.7279 22.8326 34.893C23.2465 34.0581 23.4854 33.0426 23.5284 31.8918C23.5507 31.1697 23.4632 30.5379 23.2674 29.9512C23.0715 29.2742 22.7896 28.7551 22.4633 28.2814Z" fill="url(#paint5_linear_81_1047)"/>
<path opacity="0.226763" fill-rule="evenodd" clip-rule="evenodd" d="M12.7782 35.5734C12.7278 35.5136 12.6803 35.4525 12.6373 35.3897L13.6165 32.0273C13.6298 32.0399 13.6447 32.0529 13.6595 32.0662C13.8049 32.1961 13.9859 32.3579 14.2025 32.5013C14.4206 32.6592 14.6818 32.8398 14.9636 32.9978C15.2455 33.1556 15.5511 33.3136 15.8552 33.4265C16.1594 33.5619 16.4858 33.6521 16.8107 33.6973C17.0941 33.7423 17.3552 33.7199 17.5718 33.6747C17.7899 33.6295 17.9857 33.5393 18.1371 33.4039C18.3106 33.2685 18.4205 33.088 18.5065 32.9074C18.594 32.7269 18.6593 32.5013 18.6593 32.2757C18.6815 32.0499 18.6593 31.8243 18.594 31.6212C18.5287 31.3956 18.4412 31.1924 18.3106 30.9894C18.1875 30.7749 18.0243 30.5809 17.821 30.3878C17.9279 30.5084 18.0184 30.6323 18.094 30.7637C18.2246 30.9668 18.3107 31.1698 18.3759 31.3956C18.4412 31.5986 18.4635 31.8243 18.4412 32.0499C18.4412 32.2757 18.376 32.5013 18.2899 32.6818C18.2024 32.8624 18.094 33.0428 17.9205 33.1782C17.7676 33.3136 17.5718 33.4039 17.3552 33.449C17.1371 33.4941 16.876 33.5167 16.5941 33.4716C16.2677 33.4265 15.9413 33.3362 15.6372 33.2008C15.333 33.088 15.0289 32.93 14.7455 32.772C14.4636 32.6141 14.2026 32.4336 13.9859 32.2757C13.7679 32.1323 13.5868 31.9705 13.4415 31.8406C13.4266 31.8273 13.4132 31.8143 13.3984 31.8017L12.4207 35.164C12.5171 35.3076 12.6403 35.4421 12.7782 35.5734ZM15.9814 28.7758C15.8998 28.6951 15.8211 28.6131 15.7455 28.5297C15.4413 28.1912 15.1595 27.8302 14.9414 27.424C14.7025 27.0177 14.5289 26.589 14.4206 26.1378C14.29 25.6864 14.2455 25.1899 14.2677 24.6484C14.3108 23.7457 14.4859 22.9108 14.7678 22.1661C15.0719 21.3989 15.4859 20.722 16.0066 20.1353C16.5511 19.5259 17.2024 19.0294 17.9412 18.6458C18.7245 18.2397 19.594 17.9689 20.5717 17.8335C21.0286 17.7658 21.4634 17.7432 21.8758 17.7432C22.2897 17.7432 22.6814 17.7658 23.0508 17.8109C23.4202 17.8561 23.7466 17.9237 24.0508 18.0141C24.3327 18.0817 24.5938 18.1945 24.8119 18.3073L24.7777 18.4129C24.6205 18.3445 24.4484 18.2829 24.2674 18.2397C23.9632 18.1495 23.6368 18.0817 23.2674 18.0365C22.898 17.9915 22.5063 17.9689 22.0938 17.9689C21.6814 17.9689 21.2468 17.9915 20.7898 18.0591C19.8121 18.1945 18.9412 18.4653 18.1593 18.8716C17.4205 19.2552 16.7677 19.7515 16.2247 20.3608C15.7024 20.9476 15.29 21.6245 14.9858 22.3918C14.7025 23.1365 14.5289 23.9714 14.4859 24.874C14.4636 25.4156 14.5066 25.912 14.6372 26.3634C14.7455 26.8147 14.9206 27.2434 15.1594 27.6496C15.376 28.0558 15.6594 28.4169 15.9635 28.7553C15.9695 28.7621 15.9754 28.769 15.9814 28.7758ZM18.9337 25.1695C19.0524 25.3037 19.2008 25.4499 19.3759 25.5961C19.594 25.7766 19.8551 25.9572 20.137 26.1378C20.5509 26.4085 20.9634 26.7019 21.355 27.0629C21.4693 27.168 21.582 27.2768 21.6948 27.3896C21.5138 27.195 21.3253 27.0109 21.1369 26.8373C20.7467 26.4762 20.3328 26.1828 19.9204 25.912C19.637 25.7314 19.3759 25.551 19.1593 25.3705C19.0777 25.3031 19.0035 25.2358 18.9337 25.1695Z" fill="black"/>
<path opacity="0.41" fill-rule="evenodd" clip-rule="evenodd" d="M33.8322 37.1275L33.0934 11.628L32.9628 11.4926L33.3115 36.7663C33.3115 36.7663 30.2463 41.5954 29.7894 41.46C29.1158 41.257 31.1157 9.59707 31.1157 9.59707L30.8977 9.37147C30.8116 9.30371 30.7018 9.25867 30.6158 9.23608L28.9853 43.0622L28.963 43.5361L29.5282 42.7914L33.8322 37.1275Z" fill="url(#paint6_linear_81_1047)"/>
<path fill-rule="evenodd" clip-rule="evenodd" d="M25.5061 10.7029C25.2465 11.7634 24.9201 12.7563 24.6812 13.3656C24.5284 13.7268 24.702 14.0652 25.0284 14.1103C25.3771 14.1555 25.7673 13.9072 25.8978 13.5462C25.9201 13.4784 26.5061 12.0118 26.877 10.2742V10.2516L25.5061 10.7029Z" fill="url(#paint7_linear_81_1047)"/>
<path fill-rule="evenodd" clip-rule="evenodd" d="M15.7025 13.8619C15.3984 14.5388 15.0942 15.1255 14.8762 15.5317C14.6818 15.8702 14.7901 16.2312 15.1165 16.3214C15.4414 16.4344 15.8761 16.2312 16.0719 15.8927C16.0942 15.8477 16.7248 14.742 17.29 13.3428L15.7025 13.8619Z" fill="url(#paint8_linear_81_1047)"/>
<path opacity="0.32" fill-rule="evenodd" clip-rule="evenodd" d="M28.963 43.5133L33.8322 37.1271L40.5723 40.9182L28.963 43.5133Z" fill="url(#paint9_linear_81_1047)"/>
<path opacity="0.19" fill-rule="evenodd" clip-rule="evenodd" d="M28.963 43.5133L33.7892 37.1271L40.5723 40.9182L28.963 43.5133Z" fill="url(#paint10_linear_81_1047)"/>
<path opacity="0.19" fill-rule="evenodd" clip-rule="evenodd" d="M28.963 43.5133L33.7892 37.1271L40.5723 40.9182L28.963 43.5133Z" fill="url(#paint11_linear_81_1047)"/>
<path opacity="0.6" fill-rule="evenodd" clip-rule="evenodd" d="M24.2243 25.6414C26.7465 29.1842 28.4422 33.0204 29.2893 36.7437L30.6157 9.1909C30.3769 9.14587 30.1365 9.1909 30.0712 9.21349L11.6373 15.1484C11.6373 15.1484 11.4637 15.1934 11.2456 15.2838C15.9205 16.9536 20.5939 20.5416 24.2243 25.6414Z" fill="url(#paint12_linear_81_1047)"/>
<path fill-rule="evenodd" clip-rule="evenodd" d="M36.332 11.9439C36.4418 12.0342 36.4418 12.1696 36.4418 12.1696L40.4846 40.8958L33.8321 37.1048L33.0933 11.6055L36.0724 11.8311C36.0931 11.8537 36.2237 11.8537 36.332 11.9439Z" fill="url(#paint13_linear_81_1047)"/>
<path fill-rule="evenodd" clip-rule="evenodd" d="M35.8545 12.0119C35.8545 12.0119 35.9851 12.0119 36.0934 12.1247C36.2017 12.215 36.2239 12.3504 36.2239 12.3504L40.2029 40.7608L40.5071 40.9413L36.4627 12.1924C36.4627 12.1924 36.442 12.057 36.3544 11.9668C36.2461 11.8765 36.0934 11.8765 36.0934 11.8765L33.1157 11.6509L35.8545 12.0119Z" fill="url(#paint14_linear_81_1047)"/>
<path fill-rule="evenodd" clip-rule="evenodd" d="M7.57227 39.3609L28.9631 43.5131L30.0075 19.9994L10.2323 20.5615L7.57227 39.3609Z" fill="url(#paint15_linear_81_1047)"/>
<path opacity="0.3" fill-rule="evenodd" clip-rule="evenodd" d="M14.5941 15.4769C14.3998 16.0254 14.5911 16.6016 15.0243 16.7643C15.4561 16.9269 15.9635 16.6142 16.1593 16.0658C16.3537 15.5175 16.1608 14.9411 15.7291 14.7785C15.2974 14.6158 14.7885 14.9285 14.5941 15.4769Z" fill="white"/>
<path opacity="0.89" fill-rule="evenodd" clip-rule="evenodd" d="M14.5706 15.2166C14.3762 15.765 14.5691 16.3414 15.0008 16.5039C15.4325 16.6666 15.9414 16.3539 16.1358 15.8056C16.3301 15.2571 16.1388 14.6807 15.7056 14.5181C15.2738 14.3554 14.7664 14.6681 14.5706 15.2166Z" fill="black"/>
<path fill-rule="evenodd" clip-rule="evenodd" d="M33.1157 11.6279L30.8977 9.34877C30.8116 9.281 30.7018 9.23597 30.6158 9.21338L28.963 43.5134L33.8545 37.1046L33.1157 11.6279Z" fill="url(#paint16_linear_81_1047)"/>
<path fill-rule="evenodd" clip-rule="evenodd" d="M30.0714 9.23635L11.6375 15.1485C11.6375 15.1485 10.8556 15.3743 10.6598 15.6224C10.6375 15.645 10.6375 15.6676 10.6167 15.6902L29.202 10.3646C29.3548 10.3194 29.7242 10.1841 29.6812 11.2898L28.5506 43.4686L28.9424 43.5364L30.5936 9.23635C30.377 9.16859 30.1367 9.21376 30.0714 9.23635Z" fill="url(#paint17_linear_81_1047)"/>
<path fill-rule="evenodd" clip-rule="evenodd" d="M30.0714 9.23635L11.6375 15.1485C11.6375 15.1485 10.8556 15.3743 10.6598 15.6224C10.6375 15.645 10.6375 15.6676 10.6167 15.6902L14.9207 14.449L29.7242 9.68769C29.7895 9.6651 30.0284 9.61993 30.2673 9.66511L28.6368 43.4686L28.9424 43.5364L30.5936 9.23635C30.377 9.16859 30.1367 9.21376 30.0714 9.23635Z" fill="url(#paint18_linear_81_1047)"/>
<path opacity="0.32" fill-rule="evenodd" clip-rule="evenodd" d="M34.8116 37.6689L33.8323 37.1047L28.9424 43.5134L29.202 43.4456C29.202 43.4456 33.5074 37.6915 33.8976 37.5109C34.181 37.3981 34.8116 37.6689 34.8116 37.6689Z" fill="url(#paint19_linear_81_1047)"/>
<path opacity="0.57" fill-rule="evenodd" clip-rule="evenodd" d="M28.963 43.5134L33.8545 37.1047C33.8322 37.1273 30.7463 40.625 28.963 43.5134Z" fill="url(#paint20_linear_81_1047)"/>
<path opacity="0.46" fill-rule="evenodd" clip-rule="evenodd" d="M40.5722 40.9182L33.8543 37.1271C33.8321 37.1271 34.6154 37.2625 40.5722 40.9182Z" fill="url(#paint21_linear_81_1047)"/>
<path opacity="0.3" fill-rule="evenodd" clip-rule="evenodd" d="M24.5329 13.2268C24.337 13.7753 24.5299 14.3517 24.9617 14.5144C25.3949 14.6771 25.9023 14.3644 26.0966 13.8161C26.2925 13.2676 26.0996 12.6912 25.6679 12.5285C25.2361 12.3659 24.7272 12.6785 24.5329 13.2268Z" fill="white"/>
<path opacity="0.89" fill-rule="evenodd" clip-rule="evenodd" d="M24.5093 12.9676C24.3149 13.5161 24.5079 14.0925 24.9396 14.2552C25.3713 14.4177 25.8801 14.1052 26.0745 13.5567C26.2688 13.0083 26.0774 12.4319 25.6457 12.2692C25.2125 12.1065 24.7051 12.4192 24.5093 12.9676Z" fill="black"/>
<path fill-rule="evenodd" clip-rule="evenodd" d="M15.3553 16.3218C15.333 16.3218 15.2899 16.3218 15.2677 16.3218C14.9205 16.2767 14.6817 15.9382 14.7247 15.5546C14.7678 15.1935 16.0065 6.75387 21.0938 4.83586C22.3757 4.36193 23.4632 4.45214 24.2895 5.15181C25.2895 5.98672 25.8325 7.65655 25.92 10.0937C25.9853 11.8087 25.7895 13.2979 25.7895 13.3657C25.7465 13.7267 25.4201 13.9976 25.0715 13.9298C24.7243 13.8847 24.4631 13.5463 24.5284 13.1851C24.7242 11.6507 24.9409 7.43095 23.4854 6.21232C23.0285 5.82875 22.398 5.78357 21.5509 6.09952C17.1816 7.74676 16.0288 15.6674 16.0288 15.735C15.9412 16.0736 15.6816 16.3218 15.3553 16.3218Z" fill="#595961"/>
<path opacity="0.46" fill-rule="evenodd" clip-rule="evenodd" d="M24.0285 5.19672C23.2674 4.56496 22.2675 4.47475 21.0717 4.9035C19.0065 5.69323 17.2677 7.76922 16.0719 10.9059C15.1817 13.2302 14.8761 15.3288 14.8761 15.4191C14.8553 15.5319 14.8984 15.6447 14.9637 15.7351C15.029 15.8253 15.1164 15.893 15.2247 15.893C15.2455 15.893 15.2678 15.893 15.29 15.893C15.4859 15.893 15.6594 15.7351 15.6817 15.5319C15.7024 15.4417 16.8553 7.38565 21.3551 5.69323C22.2675 5.35469 23.0063 5.39987 23.5285 5.85121C25.0715 7.13747 24.8549 11.4926 24.6591 13.0496C24.6368 13.2754 24.7896 13.501 25.0062 13.5235C25.2243 13.5461 25.4409 13.3882 25.4632 13.1626C25.4854 12.9142 26.2465 7.04725 24.0285 5.19672Z" fill="#B2B2C2"/>
<path opacity="0.81" fill-rule="evenodd" clip-rule="evenodd" d="M15.2678 15.6448C15.2456 15.6448 15.2456 15.6448 15.2248 15.6448C15.0943 15.6222 15.0067 15.4868 15.029 15.3514C15.0512 15.2611 15.3332 13.2077 16.2248 10.8834C17.4206 7.79191 19.1163 5.73836 21.137 4.97107C22.2898 4.54232 23.2245 4.63268 23.9411 5.21941C26.0715 7.00203 25.3327 12.7789 25.2897 13.0271C25.2674 13.1625 25.1591 13.2527 25.0063 13.2303C24.8773 13.2077 24.7897 13.0949 24.7897 12.9369C24.7897 12.8692 25.5285 7.20518 23.6162 5.58039C23.0509 5.15164 22.2676 5.10661 21.3121 5.46759C16.7248 7.20518 15.529 15.3514 15.529 15.4417C15.5067 15.5545 15.3984 15.6448 15.2678 15.6448Z" fill="#B2B2C2"/>
<path opacity="0.42" fill-rule="evenodd" clip-rule="evenodd" d="M18.1371 9.19075C18.3759 8.85236 18.594 8.51382 18.8106 8.15283C18.7245 8.26563 18.094 9.43909 16.7899 9.25852C16.7677 9.25852 17.5288 9.5067 18.1371 9.19075Z" fill="#595961"/>
<path opacity="0.42" fill-rule="evenodd" clip-rule="evenodd" d="M17.3983 10.6347C17.5942 10.2736 17.7899 9.89004 17.9413 9.52905C17.876 9.66444 17.4413 10.8829 16.0719 10.8829C16.0719 10.8829 16.8331 11.0409 17.3983 10.6347Z" fill="#595961"/>
<path opacity="0.42" fill-rule="evenodd" clip-rule="evenodd" d="M16.833 12.1246C17.0066 11.7409 17.1372 11.3573 17.2677 10.9738C17.2024 11.1091 16.9636 12.3502 15.5289 12.5082C15.5289 12.4856 16.3107 12.576 16.833 12.1246Z" fill="#595961"/>
<path opacity="0.62" fill-rule="evenodd" clip-rule="evenodd" d="M25.5283 7.72399C25.42 7.31768 25.3116 6.93412 25.1588 6.52795C25.2019 6.66334 25.6366 7.94959 24.7465 8.87472C24.7465 8.87472 25.3977 8.42352 25.5283 7.72399Z" fill="#595961"/>
<path opacity="0.62" fill-rule="evenodd" clip-rule="evenodd" d="M24.6814 5.69306C24.3773 5.39969 24.0716 5.12892 23.7675 4.88074C23.8772 4.99354 24.898 5.82845 24.6161 7.09211C24.5939 7.09211 24.9203 6.3474 24.6814 5.69306Z" fill="#595961"/>
<path opacity="0.62" fill-rule="evenodd" clip-rule="evenodd" d="M25.7465 9.80018C25.7242 9.39402 25.659 8.96527 25.5937 8.55896C25.5937 8.71694 25.8118 10.0484 24.7673 10.7705C24.7673 10.7705 25.4854 10.4545 25.7465 9.80018Z" fill="#595961"/>
<path opacity="0.62" fill-rule="evenodd" clip-rule="evenodd" d="M25.8549 11.9215C25.8771 11.5153 25.8771 11.0866 25.8549 10.6804C25.8549 10.8384 25.8771 12.1698 24.7673 12.779C24.7673 12.7566 25.5285 12.5308 25.8549 11.9215Z" fill="#595961"/>
<path opacity="0.42" fill-rule="evenodd" clip-rule="evenodd" d="M16.3328 13.7716C16.4634 13.3654 16.5509 12.9593 16.637 12.5756C16.594 12.7109 16.3981 13.9972 15.0718 14.3132C15.094 14.3132 15.8759 14.2906 16.3328 13.7716Z" fill="#595961"/>
<path opacity="0.42" fill-rule="evenodd" clip-rule="evenodd" d="M18.9635 7.9493C19.2676 7.67853 19.5509 7.38517 19.8121 7.06921C19.7023 7.15942 18.8329 8.08469 17.6163 7.74615C17.6371 7.74615 18.3107 8.15246 18.9635 7.9493Z" fill="#595961"/>
<path opacity="0.42" fill-rule="evenodd" clip-rule="evenodd" d="M19.941 6.91181C20.2897 6.68621 20.6161 6.46047 20.941 6.21228C20.8119 6.28005 19.8119 7.0246 18.6592 6.48305C18.6592 6.48305 19.2675 7.00202 19.941 6.91181Z" fill="#595961"/>
<path opacity="0.62" fill-rule="evenodd" clip-rule="evenodd" d="M21.2674 6.1672C21.6591 6.05426 22.0286 5.91887 22.398 5.78348C22.2674 5.82866 21.0939 6.23482 20.137 5.37732C20.137 5.37732 20.5939 6.05426 21.2674 6.1672Z" fill="#595961"/>
<path opacity="0.62" fill-rule="evenodd" clip-rule="evenodd" d="M22.3757 5.76107C22.6813 5.80625 22.9855 5.82885 23.2896 5.85143C23.1813 5.82885 22.2466 5.76108 21.8326 4.8584C21.8549 4.8584 21.9632 5.46771 22.3757 5.76107Z" fill="#595961"/>
<path opacity="0.62" fill-rule="evenodd" clip-rule="evenodd" d="M23.5507 6.25718C23.7466 6.50537 23.9409 6.75355 24.1368 6.9793C24.0715 6.88894 23.4632 6.14439 23.7673 5.21912C23.7896 5.21912 23.4632 5.73822 23.5507 6.25718Z" fill="#595961"/>
<path fill-rule="evenodd" clip-rule="evenodd" d="M25.0505 12.9142C25.0713 12.666 25.8117 6.95686 23.7465 5.21927C23.3548 4.88088 22.8771 4.7229 22.3548 4.7229C21.9632 4.7229 21.5285 4.81311 21.0715 4.99367C19.0716 5.73838 17.3981 7.74675 16.2245 10.8156C15.3329 13.1174 15.0509 15.1709 15.0287 15.2611C15.0287 15.3287 15.0718 15.3965 15.1371 15.3965H15.1593C15.2245 15.3965 15.2676 15.3513 15.2676 15.2837C15.2898 15.1933 16.4633 6.95686 21.1367 5.19668C22.1367 4.81311 22.9853 4.88088 23.5936 5.39984C25.5713 7.04707 24.8325 12.8014 24.8117 12.8692C24.8117 12.9368 24.8547 13.0046 24.92 13.0046C24.92 13.0046 24.92 13.0046 24.9408 13.0046C25.006 13.0271 25.0505 12.982 25.0505 12.9142Z" fill="url(#paint22_linear_81_1047)"/>
<path fill-rule="evenodd" clip-rule="evenodd" d="M25.92 10.0935C25.8325 7.65635 25.2895 6.00897 24.2895 5.15147C23.7465 4.70028 23.0938 4.49712 22.355 4.5423C22.9202 4.58733 23.441 4.79048 23.8772 5.15147C24.8771 5.98653 25.4201 7.65635 25.5061 10.0935C25.5714 11.8085 25.3771 13.2977 25.3771 13.3655C25.3326 13.6363 25.159 13.8394 24.9409 13.907C24.9854 13.9296 25.0061 13.9296 25.0506 13.9296C25.3978 13.9748 25.7242 13.7265 25.7673 13.3655C25.7895 13.2977 25.9853 11.8311 25.92 10.0935Z" fill="url(#paint23_linear_81_1047)"/>
<path fill-rule="evenodd" clip-rule="evenodd" d="M21.1163 6.09933C16.747 7.74657 15.5943 15.6672 15.5943 15.7574C15.5513 16.0282 15.3762 16.2314 15.1595 16.299C15.2026 16.3216 15.2248 16.3216 15.2678 16.3216C15.2901 16.3216 15.3332 16.3216 15.3554 16.3216C15.6818 16.3216 15.9414 16.0734 15.9859 15.7574C16.0067 15.6672 17.1372 7.76916 21.5065 6.12178C21.8121 6.00898 22.0718 5.94136 22.3121 5.91877C21.9857 5.87359 21.5717 5.94136 21.1163 6.09933Z" fill="url(#paint24_linear_81_1047)"/>
<defs>
<linearGradient id="paint0_linear_81_1047" x1="20.4886" y1="5.94718" x2="19.8068" y2="15.2294" gradientUnits="userSpaceOnUse">
<stop stop-color="white" stop-opacity="0.65"/>
<stop offset="1" stop-color="white" stop-opacity="0.01"/>
</linearGradient>
<linearGradient id="paint1_linear_81_1047" x1="25.4706" y1="11.2604" x2="30.2706" y2="15.4646" gradientUnits="userSpaceOnUse">
<stop stop-opacity="0.01"/>
<stop offset="1" stop-opacity="0.4"/>
</linearGradient>
<linearGradient id="paint2_linear_81_1047" x1="23.5463" y1="16.1239" x2="28.6269" y2="11.3916" gradientUnits="userSpaceOnUse">
<stop stop-opacity="0.01"/>
<stop offset="1" stop-opacity="0.4"/>
</linearGradient>
<linearGradient id="paint3_linear_81_1047" x1="17.0793" y1="2.31372" x2="-2.65446" y2="25.0513" gradientUnits="userSpaceOnUse">
<stop stop-color="#B8D26E"/>
<stop offset="1" stop-color="#7FB525"/>
</linearGradient>
<linearGradient id="paint4_linear_81_1047" x1="44.0737" y1="8.00626" x2="33.2434" y2="8.20738" gradientUnits="userSpaceOnUse">
<stop stop-color="#B4E034"/>
<stop offset="1" stop-color="#60A927"/>
</linearGradient>
<linearGradient id="paint5_linear_81_1047" x1="11.8598" y1="23.1676" x2="2.9804" y2="44.7907" gradientUnits="userSpaceOnUse">
<stop stop-color="white"/>
<stop offset="1" stop-color="#CECEEB"/>
</linearGradient>
<linearGradient id="paint6_linear_81_1047" x1="24.5908" y1="76.4187" x2="38.6539" y2="76.3902" gradientUnits="userSpaceOnUse">
<stop stop-color="#1D1D1B" stop-opacity="0.5"/>
<stop offset="0.038033" stop-color="#1D1D1B" stop-opacity="0.4837"/>
<stop offset="0.4243" stop-color="#1D1D1B" stop-opacity="0.3185"/>
<stop offset="1" stop-color="#1D1D1B" stop-opacity="0.01"/>
</linearGradient>
<linearGradient id="paint7_linear_81_1047" x1="26.2242" y1="8.73708" x2="23.8911" y2="9.99274" gradientUnits="userSpaceOnUse">
<stop stop-opacity="0.01"/>
<stop offset="1" stop-opacity="0.4"/>
</linearGradient>
<linearGradient id="paint8_linear_81_1047" x1="16.4429" y1="12.4612" x2="14.8028" y2="13.8707" gradientUnits="userSpaceOnUse">
<stop stop-opacity="0.01"/>
<stop offset="1" stop-opacity="0.4"/>
</linearGradient>
<linearGradient id="paint9_linear_81_1047" x1="32.4406" y1="40.935" x2="32.6066" y2="43.1238" gradientUnits="userSpaceOnUse">
<stop stop-opacity="0.01"/>
<stop offset="1" stop-opacity="0.4"/>
</linearGradient>
<linearGradient id="paint10_linear_81_1047" x1="28.5639" y1="37.7308" x2="28.9489" y2="43.4214" gradientUnits="userSpaceOnUse">
<stop stop-color="white" stop-opacity="0.5"/>
<stop offset="0.0896271" stop-color="white" stop-opacity="0.4552"/>
<stop offset="1" stop-color="white" stop-opacity="0.01"/>
</linearGradient>
<linearGradient id="paint11_linear_81_1047" x1="27.8236" y1="38.6159" x2="28.5083" y2="44.6947" gradientUnits="userSpaceOnUse">
<stop stop-opacity="0.01"/>
<stop offset="1" stop-opacity="0.4"/>
</linearGradient>
<linearGradient id="paint12_linear_81_1047" x1="25.1367" y1="3.64194" x2="7.57485" y2="13.799" gradientUnits="userSpaceOnUse">
<stop stop-color="white" stop-opacity="0.5"/>
<stop offset="1" stop-color="white" stop-opacity="0.01"/>
</linearGradient>
<linearGradient id="paint13_linear_81_1047" x1="28.5252" y1="56.7263" x2="44.026" y2="56.7576" gradientUnits="userSpaceOnUse">
<stop stop-color="#1D1D1B" stop-opacity="0.5"/>
<stop offset="0.0896271" stop-color="#1D1D1B" stop-opacity="0.4552"/>
<stop offset="1" stop-color="#1D1D1B" stop-opacity="0.01"/>
</linearGradient>
<linearGradient id="paint14_linear_81_1047" x1="39.6258" y1="10.7957" x2="37.4239" y2="11.3353" gradientUnits="userSpaceOnUse">
<stop stop-color="white" stop-opacity="0.4"/>
<stop offset="1" stop-color="white" stop-opacity="0.01"/>
</linearGradient>
<linearGradient id="paint15_linear_81_1047" x1="19.87" y1="43.7642" x2="21.015" y2="38.244" gradientUnits="userSpaceOnUse">
<stop stop-color="#1D1D1B" stop-opacity="0.5"/>
<stop offset="0.0896271" stop-color="#1D1D1B" stop-opacity="0.4552"/>
<stop offset="1" stop-color="#1D1D1B" stop-opacity="0.01"/>
</linearGradient>
<linearGradient id="paint16_linear_81_1047" x1="26.4898" y1="75.716" x2="40.6034" y2="75.7282" gradientUnits="userSpaceOnUse">
<stop stop-color="#1D1D1B" stop-opacity="0.5"/>
<stop offset="1" stop-color="#1D1D1B" stop-opacity="0.01"/>
</linearGradient>
<linearGradient id="paint17_linear_81_1047" x1="13.5928" y1="7.24777" x2="6.74778" y2="33.5463" gradientUnits="userSpaceOnUse">
<stop stop-color="white" stop-opacity="0.5"/>
<stop offset="1" stop-color="white" stop-opacity="0.01"/>
</linearGradient>
<linearGradient id="paint18_linear_81_1047" x1="13.5928" y1="7.24777" x2="6.74778" y2="33.5463" gradientUnits="userSpaceOnUse">
<stop stop-color="white" stop-opacity="0.5"/>
<stop offset="1" stop-color="white" stop-opacity="0.01"/>
</linearGradient>
<linearGradient id="paint19_linear_81_1047" x1="30.2049" y1="34.8154" x2="24.7946" y2="42.2621" gradientUnits="userSpaceOnUse">
<stop stop-color="white" stop-opacity="0.5"/>
<stop offset="0.0896271" stop-color="white" stop-opacity="0.4552"/>
<stop offset="1" stop-color="white" stop-opacity="0.01"/>
</linearGradient>
<linearGradient id="paint20_linear_81_1047" x1="31.8368" y1="36.5275" x2="31.3011" y2="37.7283" gradientUnits="userSpaceOnUse">
<stop stop-opacity="0.01"/>
<stop offset="1" stop-opacity="0.4"/>
</linearGradient>
<linearGradient id="paint21_linear_81_1047" x1="37.1494" y1="38.1151" x2="37.123" y2="38.4379" gradientUnits="userSpaceOnUse">
<stop stop-opacity="0.01"/>
<stop offset="1" stop-opacity="0.4"/>
</linearGradient>
<linearGradient id="paint22_linear_81_1047" x1="17.6666" y1="3.96329" x2="15.3276" y2="13.2033" gradientUnits="userSpaceOnUse">
<stop stop-color="white" stop-opacity="0.65"/>
<stop offset="1" stop-color="white" stop-opacity="0.01"/>
</linearGradient>
<linearGradient id="paint23_linear_81_1047" x1="22.9009" y1="9.2934" x2="26.9697" y2="13.43" gradientUnits="userSpaceOnUse">
<stop stop-opacity="0.01"/>
<stop offset="1" stop-opacity="0.4"/>
</linearGradient>
<linearGradient id="paint24_linear_81_1047" x1="20.3003" y1="15.3849" x2="25.9218" y2="9.61164" gradientUnits="userSpaceOnUse">
<stop stop-opacity="0.01"/>
<stop offset="1" stop-opacity="0.4"/>
</linearGradient>
</defs>
</svg>
