<svg width="35" height="35" viewBox="0 0 35 35" fill="none" xmlns="http://www.w3.org/2000/svg">
<rect width="35" height="35" rx="7.35" fill="#FAFAFB"/>
<path d="M10.914 7.50942L17.4765 6.80556L24.039 7.50942L29.1196 14.4287L17.4765 28.1838L5.83333 14.4287L10.914 7.50942Z" fill="#FDB300"/>
<path d="M10.5494 14.4287L17.4765 28.1838L5.83333 14.4287H10.5494Z" fill="#EA6C00"/>
<path d="M24.4036 14.4287L17.4765 28.1838L29.1196 14.4287H24.4036Z" fill="#EA6C00"/>
<path d="M10.5494 14.4287H24.4036L17.4765 28.1838L10.5494 14.4287Z" fill="#FDAD00"/>
<path d="M17.4765 6.80556L10.914 7.50941L10.5494 14.4287L17.4765 6.80556Z" fill="#FDD231"/>
<path d="M17.4765 6.80556L24.039 7.50941L24.4035 14.4287L17.4765 6.80556Z" fill="#FDD231"/>
<path d="M29.1196 14.4287L24.039 7.50941L24.4036 14.4287H29.1196Z" fill="#FDAD00"/>
<path d="M5.83333 14.4287L10.914 7.50941L10.5494 14.4287H5.83333Z" fill="#FDAD00"/>
<path d="M17.4765 6.80556L10.5494 14.4287H24.4036L17.4765 6.80556Z" fill="#FEEEB7"/>
</svg>
