<svg width="49" height="49" viewBox="0 0 49 49" fill="none" xmlns="http://www.w3.org/2000/svg">
<path d="M39.8226 22.5358C41.8935 22.5358 43.5723 20.857 43.5723 18.7861C43.5723 16.7152 41.8933 15.0364 39.8224 15.0364C37.7514 15.0364 36.0723 16.7154 36.0723 18.7864V22.5358H39.8226ZM29.3223 22.5358C31.3933 22.5358 33.0723 20.8569 33.0723 18.7858V8.28644C33.0723 6.21537 31.3933 4.53644 29.3223 4.53644C27.2512 4.53644 25.5723 6.21537 25.5723 8.28644V18.7858C25.5723 20.8569 27.2512 22.5358 29.3223 22.5358Z" fill="#2EB67D"/>
<path d="M8.32194 25.5365C6.25105 25.5365 4.57227 27.2153 4.57227 29.2861C4.57227 31.357 6.25121 33.0358 8.32211 33.0358C10.3932 33.0358 12.0723 31.3569 12.0723 29.2858V25.5365H8.32194ZM18.8223 25.5365C16.7512 25.5365 15.0723 27.2154 15.0723 29.2865V39.7858C15.0723 41.8569 16.7512 43.5358 18.8223 43.5358C20.8933 43.5358 22.5723 41.8569 22.5723 39.7858V29.2865C22.5723 27.2154 20.8933 25.5365 18.8223 25.5365Z" fill="#E01E5A"/>
<path d="M25.5725 39.7865C25.5725 41.8573 27.2513 43.5361 29.3222 43.5361C31.3931 43.5361 33.0719 41.8572 33.0719 39.7863C33.0719 37.7152 31.393 36.0361 29.3219 36.0361L25.5725 36.0361L25.5725 39.7865ZM25.5725 29.2861C25.5725 31.3572 27.2515 33.0361 29.3225 33.0361L39.8219 33.0361C41.893 33.0361 43.5719 31.3572 43.5719 29.2861C43.5719 27.2151 41.893 25.5361 39.8219 25.5361L29.3225 25.5361C27.2515 25.5361 25.5725 27.2151 25.5725 29.2861Z" fill="#ECB22E"/>
<path d="M22.5719 8.28581C22.5719 6.21492 20.8931 4.53613 18.8222 4.53613C16.7513 4.53613 15.0725 6.21508 15.0725 8.28597C15.0725 10.357 16.7514 12.0361 18.8225 12.0361L22.5719 12.0361L22.5719 8.28581ZM22.5719 18.7861C22.5719 16.7151 20.8929 15.0361 18.8219 15.0361L8.32251 15.0361C6.25144 15.0361 4.57251 16.7151 4.57251 18.7861C4.57251 20.8572 6.25144 22.5361 8.32251 22.5361L18.8219 22.5361C20.8929 22.5361 22.5719 20.8572 22.5719 18.7861Z" fill="#36C5F0"/>
</svg>
