<svg width="48" height="49" viewBox="0 0 48 49" fill="none" xmlns="http://www.w3.org/2000/svg">
<g clip-path="url(#clip0_58_315)">
<circle cx="24" cy="24.0361" r="24" fill="#1ED760"/>
<path d="M33.5465 32.4706C33.1877 33.0398 32.4223 33.1992 31.8244 32.8577C27.1124 30.1251 21.2046 29.5103 14.2204 31.0132C13.5506 31.1498 12.8809 30.7627 12.7374 30.1251C12.5939 29.4875 13.0005 28.8499 13.6702 28.7133C21.3002 27.051 27.8539 27.7569 33.116 30.831C33.7139 31.1726 33.9053 31.9013 33.5465 32.4706ZM35.9862 27.2787C35.5318 27.9846 34.575 28.1896 33.8335 27.7797C28.4519 24.6145 20.2478 23.7036 13.8855 25.5481C13.0483 25.7758 12.1873 25.3432 11.9481 24.5689C11.7089 23.7719 12.1634 22.9522 13.0005 22.7245C20.2717 20.6295 29.3129 21.6314 35.5078 25.2521C36.2015 25.662 36.4407 26.5728 35.9862 27.2787ZM36.2015 21.8592C29.7435 18.2158 19.0997 17.8742 12.9288 19.6503C11.9481 19.9464 10.8957 19.4226 10.5847 18.4662C10.2738 17.5326 10.8478 16.5307 11.8285 16.2347C18.9084 14.1852 30.6763 14.5951 38.091 18.785C38.976 19.286 39.263 20.379 38.7368 21.2216C38.2345 22.0869 37.0865 22.3829 36.2015 21.8592Z" fill="white"/>
</g>
<defs>
<clipPath id="clip0_58_315">
<rect width="48" height="48" fill="white" transform="translate(0 0.0361328)"/>
</clipPath>
</defs>
</svg>
