<svg width="49" height="49" viewBox="0 0 49 49" fill="none" xmlns="http://www.w3.org/2000/svg">
<path d="M12.7486 29.725C12.983 27.7842 13.779 26.6975 15.279 25.5835C17.4253 24.0749 20.1063 24.9283 20.1063 24.9283V19.8655C20.7581 19.8489 21.4102 19.8875 22.0549 19.981V26.4962C22.0549 26.4962 19.3746 25.6428 17.2283 27.1523C15.7291 28.2655 14.9315 29.3529 14.6979 31.2938C14.6906 32.3476 14.8884 33.7253 15.7991 34.9165C15.5739 34.801 15.3444 34.6694 15.1106 34.5217C13.1043 33.1745 12.7388 31.1533 12.7486 29.725ZM33.1249 10.5045C31.6484 8.88662 31.0901 7.25312 30.8882 6.10562H32.7456C32.7456 6.10562 32.3753 9.11441 35.0742 12.0733L35.1116 12.113C34.3842 11.6555 33.7171 11.1154 33.1249 10.5045ZM42.0722 15.0914V21.4756C42.0722 21.4756 39.7021 21.3828 37.9481 20.9366C35.4991 20.3125 33.925 19.3553 33.925 19.3553C33.925 19.3553 32.8376 18.6728 32.7497 18.6252V31.8086C32.7497 32.5427 32.5486 34.3759 31.9358 35.9048C31.1357 37.905 29.901 39.2178 29.6739 39.4862C29.6739 39.4862 28.1722 41.2609 25.5229 42.456C23.1349 43.5341 21.0383 43.5067 20.4116 43.534C20.4116 43.534 16.7872 43.6776 13.5259 41.5581C12.8206 41.0909 12.1623 40.5618 11.5594 39.9776L11.5757 39.9893C14.8379 42.1088 18.4614 41.9653 18.4614 41.9653C19.089 41.938 21.1856 41.9653 23.5728 40.8872C26.2196 39.6921 27.7238 37.9174 27.7238 37.9174C27.9484 37.6491 29.1888 36.3362 29.9856 34.3353C30.5969 32.8071 30.7995 30.9731 30.7995 30.2391V17.0572C30.8874 17.1056 31.974 17.7882 31.974 17.7882C31.974 17.7882 33.5489 18.7461 35.998 19.3694C37.7528 19.8156 40.1221 19.9084 40.1221 19.9084V14.9057C40.9327 15.0875 41.6238 15.1367 42.0722 15.0914Z" fill="#EE1D52"/>
<path d="M40.1229 14.9057V19.9069C40.1229 19.9069 37.7536 19.814 35.9988 19.3678C33.5498 18.7438 31.9749 17.7866 31.9749 17.7866C31.9749 17.7866 30.8883 17.104 30.8004 17.0557V30.2406C30.8004 30.9747 30.5994 32.8087 29.9865 34.3369C29.1864 36.3378 27.9517 37.6507 27.7246 37.919C27.7246 37.919 26.2221 39.6937 23.5737 40.8888C21.1865 41.9669 19.0898 41.9396 18.4623 41.9669C18.4623 41.9669 14.8387 42.1104 11.5766 39.9909L11.5603 39.9792C11.2159 39.6457 10.8917 39.2936 10.5893 38.9245C9.54831 37.6553 8.91021 36.1545 8.74986 35.7262C8.74959 35.7244 8.74959 35.7225 8.74986 35.7207C8.49185 34.9765 7.94979 33.1894 8.02386 31.4584C8.1549 28.4043 9.22926 26.5298 9.51331 26.0602C10.2656 24.7796 11.2441 23.6338 12.4051 22.6738C13.4297 21.8455 14.591 21.1864 15.8415 20.7236C17.1933 20.1803 18.6408 19.889 20.1064 19.8655V24.9283C20.1064 24.9283 17.4254 24.078 15.2799 25.5835C13.7798 26.6975 12.9838 27.7842 12.7494 29.725C12.7397 31.1533 13.1051 33.1745 15.1098 34.5225C15.3436 34.6707 15.5732 34.8023 15.7983 34.9172C16.1486 35.3725 16.5748 35.7692 17.0599 36.0913C19.0182 37.3308 20.659 37.4174 22.7573 36.6124C24.1564 36.0741 25.2096 34.8611 25.698 33.517C26.0048 32.6776 26.0007 31.8328 26.0007 30.9591V6.10562H30.8842C31.0861 7.25312 31.6444 8.88662 33.1209 10.5045C33.7131 11.1154 34.3802 11.6555 35.1076 12.113C35.3225 12.3354 36.4213 13.4345 37.8318 14.1093C38.5611 14.4581 39.3299 14.7253 40.1229 14.9057Z" fill="black"/>
<path d="M6.80615 34.1716V34.1755L6.92733 34.5039C6.91341 34.4657 6.86838 34.3494 6.80615 34.1716Z" fill="#69C9D0"/>
<path d="M15.8415 20.7237C14.5911 21.1865 13.4297 21.8456 12.4052 22.6739C11.2437 23.636 10.2655 24.7842 9.51414 26.0673C9.23008 26.5353 8.15572 28.4114 8.02468 31.4655C7.95061 33.1965 8.49267 34.9836 8.75069 35.7278C8.75041 35.7296 8.75041 35.7315 8.75069 35.7333C8.91347 36.1577 9.54913 37.6585 10.5901 38.9316C10.8925 39.3007 11.2167 39.6528 11.5611 39.9863C10.4576 39.2548 9.47346 38.3705 8.64081 37.3621C7.60877 36.1038 6.97229 34.6185 6.80625 34.1801C6.80605 34.177 6.80605 34.1739 6.80625 34.1708V34.1653C6.54742 33.4219 6.00373 31.6339 6.07942 29.9006C6.21046 26.8466 7.28483 24.972 7.56888 24.5024C8.32002 23.2192 9.29827 22.071 10.4599 21.1091C11.4843 20.2804 12.6456 19.6213 13.8962 19.1588C14.6763 18.8486 15.4889 18.6198 16.3201 18.4763C17.5727 18.2667 18.852 18.2485 20.1105 18.4224V19.8656C18.6435 19.8886 17.1945 20.1798 15.8415 20.7237Z" fill="#69C9D0"/>
<path d="M30.8882 6.10566H26.0047V30.9599C26.0047 31.8336 26.0047 32.6761 25.7019 33.5178C25.2087 34.8611 24.1596 36.0741 22.7613 36.6124C20.6622 37.4206 19.0214 37.3309 17.0639 36.0913C16.578 35.7706 16.1506 35.3753 15.7991 34.9212C17.4668 35.7738 18.9595 35.759 20.8087 35.0476C22.2062 34.5093 23.257 33.2963 23.7486 31.9522C24.0562 31.1128 24.0521 30.268 24.0521 29.3951V4.53613H30.7954C30.7954 4.53613 30.7197 5.15396 30.8882 6.10566ZM40.1228 13.5227V14.9058C39.3312 14.7251 38.5638 14.4578 37.8358 14.1093C36.4252 13.4346 35.3265 12.3354 35.1116 12.1131C35.3609 12.27 35.6196 12.4127 35.8864 12.5406C37.6013 13.3612 39.2902 13.6062 40.1228 13.5227Z" fill="#69C9D0"/>
</svg>
