<svg width="49" height="49" viewBox="0 0 49 49" fill="none" xmlns="http://www.w3.org/2000/svg">
<path d="M8.76846 10.5298L3.14062 15.6311L5.08791 18.083C5.95509 17.5439 7.68947 16.1377 8.46291 16.1377C10.1973 16.1377 11.7564 20.837 13.2442 26.0049C14.5801 30.6455 15.9629 42.1768 22.3379 42.1768C29.6738 42.1768 45.0957 22.3721 45.0957 13.5577C45.0957 10.3682 44.4629 5.77832 38.1113 5.77832C31.3051 5.77832 27.9565 12.3468 27.133 15.6311C27.7254 15.2361 29.3381 14.9728 30.2267 14.9728C33.847 14.9728 33.0738 18.7253 32.5801 20.2393C32.0864 21.7532 28.291 29.1247 26.2444 29.1247C23.7432 29.1247 22.2622 18.264 21.5381 13.5577C20.8141 8.85132 18.9381 6.28424 16.0748 6.28424C13.7842 6.28424 10.2495 9.11463 8.76846 10.5298Z" fill="#3CB9E6"/>
</svg>
