<svg width="49" height="49" viewBox="0 0 49 49" fill="none" xmlns="http://www.w3.org/2000/svg">
<path d="M3.43902 14.9478C3.63182 11.9796 6.01819 9.65348 8.98896 9.5063C13.2908 9.29318 19.4395 9.03613 24.0723 9.03613C28.7051 9.03613 34.8537 9.29318 39.1556 9.5063C42.1263 9.65348 44.5127 11.9796 44.7055 14.9478C44.8902 17.7915 45.0723 21.2906 45.0723 24.0361C45.0723 26.7816 44.8902 30.2807 44.7055 33.1245C44.5127 36.0926 42.1263 38.4188 39.1556 38.566C34.8537 38.7791 28.7051 39.0361 24.0723 39.0361C19.4395 39.0361 13.2908 38.7791 8.98897 38.566C6.01819 38.4188 3.63182 36.0926 3.43902 33.1245C3.25431 30.2807 3.07227 26.7816 3.07227 24.0361C3.07227 21.2906 3.25431 17.7915 3.43902 14.9478Z" fill="#FC0D1B"/>
<path d="M19.5723 18.0361V30.0361L31.5723 24.0361L19.5723 18.0361Z" fill="white"/>
</svg>
