<svg width="19" height="20" viewBox="0 0 19 20" fill="none" xmlns="http://www.w3.org/2000/svg">
<path d="M13.3158 2.08331H5.68413C3.99788 2.08331 2.6283 3.46081 2.6283 5.13915V16.2937C2.6283 17.7187 3.64955 18.3204 4.90038 17.6316L8.76371 15.4862C9.17538 15.2566 9.84038 15.2566 10.2441 15.4862L14.1075 17.6316C15.3583 18.3283 16.3795 17.7266 16.3795 16.2937V5.13915C16.3716 3.46081 15.002 2.08331 13.3158 2.08331ZM11.8829 8.21873C11.115 8.49581 10.3075 8.63831 9.49996 8.63831C8.69246 8.63831 7.88496 8.49581 7.11705 8.21873C6.8083 8.1079 6.64996 7.76748 6.7608 7.45873C6.87955 7.14998 7.21996 6.99165 7.52871 7.10248C8.8033 7.56165 10.2045 7.56165 11.4791 7.10248C11.7879 6.99165 12.1283 7.14998 12.2391 7.45873C12.35 7.76748 12.1916 8.1079 11.8829 8.21873Z" fill="#92929D" fill-opacity="0.7"/>
</svg>
