<svg width="20" height="20" viewBox="0 0 20 20" fill="none" xmlns="http://www.w3.org/2000/svg">
<path fill-rule="evenodd" clip-rule="evenodd" d="M5 5.22727C5 3.72104 6.22104 2.5 7.72727 2.5H10.8333C13.1345 2.5 15 4.36548 15 6.66667C15 7.85892 14.4992 8.93422 13.6966 9.69371C14.9714 10.4062 15.8333 11.7691 15.8333 13.3333C15.8333 15.6345 13.9679 17.5 11.6667 17.5H7.70833C6.21256 17.5 5 16.2874 5 14.7917V5.22727ZM7.72727 4.16667H10.8333C12.214 4.16667 13.3333 5.28595 13.3333 6.66667C13.3333 8.04738 12.214 9.16667 10.8333 9.16667H6.66667V5.22727C6.66667 4.64152 7.14152 4.16667 7.72727 4.16667ZM6.66667 10.8333V14.7917C6.66667 15.367 7.13304 15.8333 7.70833 15.8333H11.6667C13.0474 15.8333 14.1667 14.714 14.1667 13.3333C14.1667 11.9526 13.0474 10.8333 11.6667 10.8333H6.66667Z" fill="#33383F"/>
</svg>
