<svg width="20" height="20" viewBox="0 0 20 20" fill="none" xmlns="http://www.w3.org/2000/svg">
<path d="M11.6844 2.50001H13.75C14.2102 2.50001 14.5833 2.8731 14.5833 3.33334C14.5833 3.79358 14.2102 4.16667 13.75 4.16667H12.3173L9.40064 15.8333H10.8333C11.2936 15.8333 11.6667 16.2064 11.6667 16.6667C11.6667 17.1269 11.2936 17.5 10.8333 17.5H8.35172C8.33991 17.5003 8.32806 17.5003 8.31619 17.5H6.25C5.78976 17.5 5.41666 17.1269 5.41666 16.6667C5.41666 16.2064 5.78976 15.8333 6.25 15.8333H7.68268L10.5993 4.16667H9.16666C8.70643 4.16667 8.33333 3.79358 8.33333 3.33334C8.33333 2.8731 8.70643 2.50001 9.16666 2.50001H11.6477C11.6599 2.49973 11.6721 2.49973 11.6844 2.50001Z" fill="#33383F"/>
</svg>
