<svg width="20" height="20" viewBox="0 0 20 20" fill="none" xmlns="http://www.w3.org/2000/svg">
<path fill-rule="evenodd" clip-rule="evenodd" d="M10 16.6667C13.6819 16.6667 16.6667 13.6819 16.6667 10C16.6667 6.31811 13.6819 3.33334 10 3.33334C6.31811 3.33334 3.33334 6.31811 3.33334 10C3.33334 13.6819 6.31811 16.6667 10 16.6667ZM10 18.3333C14.6024 18.3333 18.3333 14.6024 18.3333 10C18.3333 5.39763 14.6024 1.66667 10 1.66667C5.39763 1.66667 1.66667 5.39763 1.66667 10C1.66667 14.6024 5.39763 18.3333 10 18.3333Z" fill="#33383F"/>
<path fill-rule="evenodd" clip-rule="evenodd" d="M5.8464 10.903C6.26814 10.7188 6.7594 10.9113 6.94367 11.333C7.4588 12.512 8.63442 13.3333 10 13.3333C11.3656 13.3333 12.5412 12.512 13.0563 11.333C13.2406 10.9113 13.7319 10.7188 14.1536 10.903C14.5754 11.0873 14.7679 11.5786 14.5836 12.0003C13.8128 13.7645 12.0516 15 10 15C7.94839 15 6.18721 13.7645 5.41641 12.0003C5.23215 11.5786 5.42466 11.0873 5.8464 10.903Z" fill="#33383F"/>
<path d="M7.49999 7.50001C7.49999 7.96024 7.1269 8.33334 6.66666 8.33334C6.20642 8.33334 5.83333 7.96024 5.83333 7.50001C5.83333 7.03977 6.20642 6.66667 6.66666 6.66667C7.1269 6.66667 7.49999 7.03977 7.49999 7.50001Z" fill="#33383F"/>
<path d="M14.1667 7.50001C14.1667 7.96024 13.7936 8.33334 13.3333 8.33334C12.8731 8.33334 12.5 7.96024 12.5 7.50001C12.5 7.03977 12.8731 6.66667 13.3333 6.66667C13.7936 6.66667 14.1667 7.03977 14.1667 7.50001Z" fill="#33383F"/>
</svg>
