<svg width="20" height="20" viewBox="0 0 20 20" fill="none" xmlns="http://www.w3.org/2000/svg">
<path fill-rule="evenodd" clip-rule="evenodd" d="M4.16666 17.5C4.16666 17.0398 4.53976 16.6667 5 16.6667H15C15.4602 16.6667 15.8333 17.0398 15.8333 17.5C15.8333 17.9602 15.4602 18.3333 15 18.3333H5C4.53976 18.3333 4.16666 17.9602 4.16666 17.5Z" fill="#33383F"/>
<path fill-rule="evenodd" clip-rule="evenodd" d="M5 1.66667C5.46023 1.66667 5.83333 2.03977 5.83333 2.50001V9.16667C5.83333 11.4679 7.69881 13.3333 10 13.3333C12.3012 13.3333 14.1667 11.4679 14.1667 9.16667V2.50001C14.1667 2.03977 14.5398 1.66667 15 1.66667C15.4602 1.66667 15.8333 2.03977 15.8333 2.50001V9.16667C15.8333 12.3883 13.2217 15 10 15C6.77834 15 4.16666 12.3883 4.16666 9.16667V2.50001C4.16666 2.03977 4.53976 1.66667 5 1.66667Z" fill="#33383F"/>
</svg>
