<svg width="30" height="22" viewBox="0 0 30 22" fill="none" xmlns="http://www.w3.org/2000/svg">
<path fill-rule="evenodd" clip-rule="evenodd" d="M25.9352 6.33723C25.9352 7.64256 24.8521 8.70162 23.5157 8.70162C22.1799 8.70162 21.0961 7.64256 21.0961 6.33723C21.0961 5.03128 22.1799 3.97223 23.5157 3.97223C24.8521 3.97223 25.9352 5.03128 25.9352 6.33723Z" fill="#92929D"/>
<path fill-rule="evenodd" clip-rule="evenodd" d="M28.1239 19.3209L21.0272 11.8977C20.799 11.6587 20.4825 11.5194 20.1486 11.5102C19.8103 11.5029 19.4907 11.6227 19.2493 11.8482L16.1556 14.7375L12.1327 8.9393C11.9082 8.61541 11.538 8.41619 11.1371 8.40336C10.7312 8.39664 10.3541 8.56714 10.109 8.87697L1.87607 19.2628V1.8333H28.1239V19.3209ZM29.062 0H0.938047C0.41962 0 0 0.410667 0 0.916667V21.0833C0 21.5899 0.41962 22 0.938047 22H29.062C29.5804 22 30 21.5899 30 21.0833V0.916667C30 0.410667 29.5804 0 29.062 0Z" fill="#92929D"/>
</svg>
