<svg width="20" height="20" viewBox="0 0 20 20" fill="none" xmlns="http://www.w3.org/2000/svg">
<path d="M11.6844 2.50002H13.75C14.2102 2.50002 14.5833 2.87312 14.5833 3.33335C14.5833 3.79359 14.2102 4.16669 13.75 4.16669H12.3173L9.40063 15.8334H10.8333C11.2936 15.8334 11.6667 16.2064 11.6667 16.6667C11.6667 17.1269 11.2936 17.5 10.8333 17.5H8.35171C8.3399 17.5003 8.32806 17.5003 8.31618 17.5H6.24999C5.78975 17.5 5.41666 17.1269 5.41666 16.6667C5.41666 16.2064 5.78975 15.8334 6.24999 15.8334H7.68267L10.5993 4.16669H9.16666C8.70642 4.16669 8.33332 3.79359 8.33332 3.33335C8.33332 2.87312 8.70642 2.50002 9.16666 2.50002H11.6477C11.6599 2.49975 11.6721 2.49975 11.6844 2.50002Z" fill="#92929D"/>
</svg>
