<svg width="16" height="16" viewBox="0 0 16 16" fill="none" xmlns="http://www.w3.org/2000/svg">
<path d="M8.94001 8L13.14 3.80667C13.2655 3.68113 13.3361 3.51087 13.3361 3.33333C13.3361 3.1558 13.2655 2.98554 13.14 2.86C13.0145 2.73447 12.8442 2.66394 12.6667 2.66394C12.4891 2.66394 12.3189 2.73447 12.1933 2.86L8.00001 7.06L3.80668 2.86C3.68114 2.73447 3.51088 2.66394 3.33334 2.66394C3.15581 2.66394 2.98555 2.73447 2.86001 2.86C2.73447 2.98554 2.66395 3.1558 2.66395 3.33333C2.66395 3.51087 2.73447 3.68113 2.86001 3.80667L7.06001 8L2.86001 12.1933C2.79752 12.2553 2.74793 12.329 2.71408 12.4103C2.68024 12.4915 2.66281 12.5787 2.66281 12.6667C2.66281 12.7547 2.68024 12.8418 2.71408 12.9231C2.74793 13.0043 2.79752 13.078 2.86001 13.14C2.92199 13.2025 2.99572 13.2521 3.07696 13.2859C3.1582 13.3198 3.24534 13.3372 3.33334 13.3372C3.42135 13.3372 3.50849 13.3198 3.58973 13.2859C3.67097 13.2521 3.7447 13.2025 3.80668 13.14L8.00001 8.94L12.1933 13.14C12.2553 13.2025 12.3291 13.2521 12.4103 13.2859C12.4915 13.3198 12.5787 13.3372 12.6667 13.3372C12.7547 13.3372 12.8418 13.3198 12.9231 13.2859C13.0043 13.2521 13.078 13.2025 13.14 13.14C13.2025 13.078 13.2521 13.0043 13.2859 12.9231C13.3198 12.8418 13.3372 12.7547 13.3372 12.6667C13.3372 12.5787 13.3198 12.4915 13.2859 12.4103C13.2521 12.329 13.2025 12.2553 13.14 12.1933L8.94001 8Z" fill="#44444F"/>
</svg>
