<svg width="20" height="20" viewBox="0 0 20 20" fill="none" xmlns="http://www.w3.org/2000/svg">
<path fill-rule="evenodd" clip-rule="evenodd" d="M12.5 4.16665C12.5 2.3257 13.9924 0.833313 15.8333 0.833313C17.6743 0.833313 19.1667 2.3257 19.1667 4.16665C19.1667 6.0076 17.6743 7.49998 15.8333 7.49998C14.6955 7.49998 13.6908 6.92988 13.0894 6.05974L7.30668 8.87863C7.43183 9.22905 7.49999 9.60656 7.49999 9.99998C7.49999 10.3662 7.44092 10.7187 7.33179 11.0483L13.0813 13.9519C13.6818 13.0752 14.6904 12.5 15.8333 12.5C17.6743 12.5 19.1667 13.9924 19.1667 15.8333C19.1667 17.6743 17.6743 19.1666 15.8333 19.1666C13.9924 19.1666 12.5 17.6743 12.5 15.8333C12.5 15.7318 12.5045 15.6314 12.5134 15.5322L6.42093 12.4555C5.82751 13.0006 5.03594 13.3333 4.16666 13.3333C2.32571 13.3333 0.833324 11.8409 0.833324 9.99998C0.833324 8.15903 2.32571 6.66665 4.16666 6.66665C5.00515 6.66665 5.77134 6.97624 6.35714 7.48736L12.515 4.48555C12.5051 4.38059 12.5 4.27421 12.5 4.16665ZM17.5 4.16665C17.5 3.24617 16.7538 2.49998 15.8333 2.49998C14.9128 2.49998 14.1667 3.24617 14.1667 4.16665C14.1667 5.08712 14.9128 5.83331 15.8333 5.83331C16.7538 5.83331 17.5 5.08712 17.5 4.16665ZM17.5 15.8333C17.5 14.9128 16.7538 14.1666 15.8333 14.1666C14.9129 14.1666 14.1667 14.9128 14.1667 15.8333C14.1667 16.7538 14.9129 17.5 15.8333 17.5C16.7538 17.5 17.5 16.7538 17.5 15.8333ZM4.16666 8.33331C5.08713 8.33331 5.83332 9.0795 5.83332 9.99998C5.83332 10.9205 5.08713 11.6666 4.16666 11.6666C3.24618 11.6666 2.49999 10.9205 2.49999 9.99998C2.49999 9.0795 3.24618 8.33331 4.16666 8.33331Z" fill="#92929D"/>
</svg>
