<svg width="20" height="20" viewBox="0 0 20 20" fill="none" xmlns="http://www.w3.org/2000/svg">
<path fill-rule="evenodd" clip-rule="evenodd" d="M10 16.6667C13.6819 16.6667 16.6667 13.6819 16.6667 10C16.6667 6.31812 13.6819 3.33335 10 3.33335C6.31812 3.33335 3.33335 6.31812 3.33335 10C3.33335 13.6819 6.31812 16.6667 10 16.6667ZM10 18.3334C14.6024 18.3334 18.3334 14.6024 18.3334 10C18.3334 5.39765 14.6024 1.66669 10 1.66669C5.39765 1.66669 1.66669 5.39765 1.66669 10C1.66669 14.6024 5.39765 18.3334 10 18.3334Z" fill="#92929D"/>
<path fill-rule="evenodd" clip-rule="evenodd" d="M5.8464 10.903C6.26814 10.7188 6.7594 10.9113 6.94367 11.333C7.4588 12.512 8.63442 13.3333 10 13.3333C11.3656 13.3333 12.5412 12.512 13.0563 11.333C13.2406 10.9113 13.7319 10.7188 14.1536 10.903C14.5754 11.0873 14.7679 11.5786 14.5836 12.0003C13.8128 13.7645 12.0516 15 10 15C7.94839 15 6.18721 13.7645 5.41641 12.0003C5.23215 11.5786 5.42466 11.0873 5.8464 10.903Z" fill="#92929D"/>
<path d="M7.49998 7.50002C7.49998 7.96026 7.12688 8.33335 6.66665 8.33335C6.20641 8.33335 5.83331 7.96026 5.83331 7.50002C5.83331 7.03978 6.20641 6.66669 6.66665 6.66669C7.12688 6.66669 7.49998 7.03978 7.49998 7.50002Z" fill="#92929D"/>
<path d="M14.1667 7.50002C14.1667 7.96026 13.7936 8.33335 13.3333 8.33335C12.8731 8.33335 12.5 7.96026 12.5 7.50002C12.5 7.03978 12.8731 6.66669 13.3333 6.66669C13.7936 6.66669 14.1667 7.03978 14.1667 7.50002Z" fill="#92929D"/>
</svg>
