<svg width="20" height="20" viewBox="0 0 20 20" fill="none" xmlns="http://www.w3.org/2000/svg">
<path fill-rule="evenodd" clip-rule="evenodd" d="M4.16666 17.5C4.16666 17.0398 4.53975 16.6667 4.99999 16.6667H15C15.4602 16.6667 15.8333 17.0398 15.8333 17.5C15.8333 17.9603 15.4602 18.3334 15 18.3334H4.99999C4.53975 18.3334 4.16666 17.9603 4.16666 17.5Z" fill="#92929D"/>
<path fill-rule="evenodd" clip-rule="evenodd" d="M4.99999 1.66669C5.46023 1.66669 5.83332 2.03978 5.83332 2.50002V9.16669C5.83332 11.4679 7.6988 13.3334 9.99999 13.3334C12.3012 13.3334 14.1667 11.4679 14.1667 9.16669V2.50002C14.1667 2.03978 14.5398 1.66669 15 1.66669C15.4602 1.66669 15.8333 2.03978 15.8333 2.50002V9.16669C15.8333 12.3883 13.2217 15 9.99999 15C6.77833 15 4.16666 12.3883 4.16666 9.16669V2.50002C4.16666 2.03978 4.53975 1.66669 4.99999 1.66669Z" fill="#92929D"/>
</svg>
