<svg width="24" height="24" viewBox="0 0 24 24" fill="none" xmlns="http://www.w3.org/2000/svg">
<path fill-rule="evenodd" clip-rule="evenodd" d="M5 11C5 7.691 7.691 5 11 5C14.309 5 17 7.691 17 11C17 14.309 14.309 17 11 17C7.691 17 5 14.309 5 11ZM20.707 19.293L17.312 15.897C18.365 14.543 19 12.846 19 11C19 6.589 15.411 3 11 3C6.589 3 3 6.589 3 11C3 15.411 6.589 19 11 19C12.846 19 14.543 18.365 15.897 17.312L19.293 20.707C19.488 20.902 19.744 21 20 21C20.256 21 20.512 20.902 20.707 20.707C21.098 20.316 21.098 19.684 20.707 19.293Z" fill="#92929D"/>
<path fill-rule="evenodd" clip-rule="evenodd" d="M14.5 10.5H11.5V7.5C11.5 7.2235 11.276 7 11 7C10.724 7 10.5 7.2235 10.5 7.5V10.5H7.5C7.224 10.5 7 10.7235 7 11C7 11.2765 7.224 11.5 7.5 11.5H10.5V14.5C10.5 14.7765 10.724 15 11 15C11.276 15 11.5 14.7765 11.5 14.5V11.5H14.5C14.776 11.5 15 11.2765 15 11C15 10.7235 14.776 10.5 14.5 10.5Z" fill="#92929D"/>
</svg>
